<svg width="362" height="212" viewBox="0 0 362 212" fill="none" xmlns="http://www.w3.org/2000/svg">
<path d="M185.752 95.2008C181.084 92.0649 175.491 90.6108 169.89 91.077C164.288 91.5433 159.011 93.9022 154.925 97.7668C150.839 101.631 148.186 106.772 147.401 112.345C146.617 117.918 147.748 123.593 150.608 128.437" stroke="#263238" stroke-width="0.969642" stroke-linecap="round" stroke-linejoin="round"/>
<path d="M194.563 105.727C194.081 104.641 193.522 103.589 192.893 102.581" stroke="#263238" stroke-width="0.969642" stroke-linecap="round" stroke-linejoin="round"/>
<path d="M192.45 129.646C194.297 126.894 195.577 123.799 196.213 120.545C196.85 117.291 196.831 113.942 196.158 110.695" stroke="#263238" stroke-width="0.969642" stroke-linecap="round" stroke-linejoin="round"/>
<path d="M147.302 91.1411C145.617 92.8342 144.107 94.6932 142.795 96.6899" stroke="#263238" stroke-width="0.969642" stroke-linecap="round" stroke-linejoin="round"/>
<path d="M199.413 137.097C204.399 130.643 206.965 122.641 206.662 114.486C206.36 106.331 203.208 98.5416 197.756 92.4758C192.304 86.4099 184.899 82.4529 176.832 81.2946C168.765 80.1364 160.547 81.8506 153.613 86.1382" stroke="#263238" stroke-width="0.969642" stroke-linecap="round" stroke-linejoin="round"/>
<path d="M144.333 137.097C140.893 132.639 138.581 127.413 137.595 121.866C136.608 116.319 136.977 110.616 138.669 105.243" stroke="#263238" stroke-width="0.969642" stroke-linecap="round" stroke-linejoin="round"/>
<path d="M133.428 145.905C135.593 148.673 138.048 151.2 140.752 153.443" stroke="#263238" stroke-width="0.969642" stroke-linecap="round" stroke-linejoin="round"/>
<path d="M199.535 75.4384C190.815 69.4594 180.395 66.4725 169.836 66.9255C159.278 67.3785 149.151 71.2471 140.974 77.951C132.797 84.6549 127.011 93.8326 124.485 104.108C121.958 114.383 122.826 125.201 126.96 134.94" stroke="#263238" stroke-width="0.969642" stroke-linecap="round" stroke-linejoin="round"/>
<path d="M217.463 98.1078C216.15 94.7192 214.464 91.488 212.436 88.4739" stroke="#263238" stroke-width="0.969642" stroke-linecap="round" stroke-linejoin="round"/>
<path d="M205.667 151.112C210.44 146.552 214.239 141.068 216.831 134.994C219.424 128.919 220.756 122.38 220.748 115.774" stroke="#263238" stroke-width="0.969642" stroke-linecap="round" stroke-linejoin="round"/>
<path d="M103.647 115.774C103.648 132.003 109.387 147.708 119.847 160.105C130.308 172.501 144.814 180.788 160.795 183.497" stroke="#263238" stroke-width="0.969642" stroke-linecap="round" stroke-linejoin="round"/>
<path d="M227.008 156.641C235.363 145.32 240.044 131.702 240.417 117.63C240.79 103.558 236.836 89.7105 229.092 77.962C221.347 66.2134 210.186 57.1306 197.117 51.9423C184.048 46.7541 169.702 45.7109 156.022 48.954" stroke="#263238" stroke-width="0.969642" stroke-linecap="round" stroke-linejoin="round"/>
<path d="M103.647 115.774C103.648 100.379 108.813 85.4295 118.315 73.3253C127.816 61.221 141.103 52.6634 156.043 49.0254" stroke="#263238" stroke-width="0.969642" stroke-linecap="round" stroke-linejoin="round"/>
<path d="M212.436 171.15C214.178 169.868 215.854 168.508 217.463 167.07" stroke="#263238" stroke-width="0.969642" stroke-linecap="round" stroke-linejoin="round"/>
<path d="M183.312 183.497C191.112 182.189 198.625 179.532 205.514 175.643" stroke="#263238" stroke-width="0.969642" stroke-linecap="round" stroke-linejoin="round"/>
<path d="M171.903 177.346C164.957 177.338 158.298 174.572 153.386 169.654C148.474 164.735 145.711 158.067 145.703 151.112V142.279C145.703 141.9 145.853 141.537 146.121 141.269C146.388 141.001 146.751 140.851 147.129 140.851H150.695C151.073 140.851 151.436 141.001 151.703 141.269C151.97 141.537 152.121 141.9 152.121 142.279C152.121 142.658 151.97 143.021 151.703 143.289C151.436 143.556 151.073 143.707 150.695 143.707H148.571V151.112C148.571 157.312 151.031 163.259 155.409 167.643C159.788 172.027 165.726 174.49 171.919 174.49C178.111 174.49 184.049 172.027 188.428 167.643C192.806 163.259 195.266 157.312 195.266 151.112V143.707H193.127C192.749 143.707 192.386 143.556 192.119 143.289C191.851 143.021 191.701 142.658 191.701 142.279C191.701 141.9 191.851 141.537 192.119 141.269C192.386 141.001 192.749 140.851 193.127 140.851H196.692C197.071 140.851 197.433 141.001 197.701 141.269C197.968 141.537 198.119 141.9 198.119 142.279V151.112C198.111 158.07 195.345 164.74 190.43 169.659C185.515 174.578 178.852 177.342 171.903 177.346Z" fill="#263238"/>
<path d="M199.529 199.297V196.441C199.53 196.066 199.457 195.694 199.314 195.347C199.171 195 198.96 194.685 198.695 194.42C198.43 194.155 198.116 193.944 197.769 193.801C197.423 193.658 197.052 193.584 196.677 193.585H147.129C146.754 193.584 146.383 193.658 146.037 193.801C145.69 193.944 145.376 194.155 145.111 194.42C144.846 194.685 144.636 195 144.493 195.347C144.35 195.694 144.276 196.066 144.277 196.441V199.297H199.529Z" fill="#263238"/>
<path d="M174.684 197.063C174.731 196.859 174.755 196.65 174.755 196.441V175.918H169.051V196.441C169.051 196.65 169.075 196.859 169.122 197.063H174.684Z" fill="#263238"/>
<path d="M189.547 115.774C189.587 113.429 189.159 111.099 188.291 108.92C187.422 106.741 186.128 104.758 184.486 103.085C182.843 101.412 180.884 100.083 178.724 99.1765C176.563 98.2696 174.244 97.8025 171.901 97.8025C169.558 97.8025 167.239 98.2696 165.078 99.1765C162.917 100.083 160.959 101.412 159.316 103.085C157.673 104.758 156.38 106.741 155.511 108.92C154.642 111.099 154.215 113.429 154.255 115.774V151.112C154.334 155.746 156.227 160.164 159.528 163.413C162.829 166.663 167.272 168.483 171.901 168.483C176.53 168.483 180.973 166.663 184.274 163.413C187.574 160.164 189.468 155.746 189.547 151.112V115.774Z" stroke="#263238" stroke-width="0.969642" stroke-linecap="round" stroke-linejoin="round"/>
<path d="M189.547 115.774C189.587 113.429 189.159 111.099 188.291 108.92C187.422 106.741 186.128 104.758 184.486 103.085C182.843 101.412 180.884 100.083 178.724 99.1765C176.563 98.2696 174.244 97.8025 171.901 97.8025C169.558 97.8025 167.239 98.2696 165.078 99.1765C162.917 100.083 160.959 101.412 159.316 103.085C157.673 104.758 156.38 106.741 155.511 108.92C154.642 111.099 154.215 113.429 154.255 115.774V151.112C154.334 155.746 156.227 160.164 159.528 163.413C162.829 166.663 167.272 168.483 171.901 168.483C176.53 168.483 180.973 166.663 184.274 163.413C187.574 160.164 189.468 155.746 189.547 151.112V115.774Z" fill="#E8E8E8"/>
<path d="M164.594 117.636H154.255V121.92H164.594C165.162 121.92 165.706 121.694 166.107 121.292C166.508 120.891 166.733 120.346 166.733 119.778C166.733 119.21 166.508 118.665 166.107 118.263C165.706 117.861 165.162 117.636 164.594 117.636Z" fill="white"/>
<path d="M189.547 117.636H179.212C178.645 117.636 178.101 117.861 177.7 118.263C177.299 118.665 177.073 119.21 177.073 119.778C177.073 120.346 177.299 120.891 177.7 121.292C178.101 121.694 178.645 121.92 179.212 121.92H189.547V117.636Z" fill="white"/>
<path d="M171.903 117.636C171.48 117.636 171.067 117.761 170.715 117.997C170.363 118.232 170.089 118.567 169.927 118.958C169.765 119.349 169.723 119.78 169.805 120.196C169.888 120.611 170.091 120.993 170.391 121.292C170.69 121.592 171.071 121.796 171.486 121.879C171.901 121.961 172.331 121.919 172.722 121.757C173.113 121.595 173.447 121.32 173.682 120.968C173.917 120.616 174.042 120.201 174.042 119.778C174.042 119.21 173.817 118.665 173.416 118.263C173.015 117.861 172.471 117.636 171.903 117.636Z" fill="white"/>
<path d="M171.903 126.296C171.48 126.296 171.067 126.421 170.715 126.657C170.363 126.892 170.089 127.227 169.927 127.618C169.765 128.009 169.723 128.44 169.805 128.856C169.888 129.271 170.091 129.653 170.391 129.952C170.69 130.252 171.071 130.456 171.486 130.538C171.901 130.621 172.331 130.579 172.722 130.417C173.113 130.254 173.447 129.98 173.682 129.628C173.917 129.275 174.042 128.861 174.042 128.438C174.042 127.87 173.817 127.325 173.416 126.923C173.015 126.521 172.471 126.296 171.903 126.296Z" fill="white"/>
<path d="M171.903 134.94C171.48 134.94 171.067 135.066 170.715 135.301C170.363 135.537 170.089 135.871 169.927 136.262C169.765 136.654 169.723 137.085 169.805 137.5C169.888 137.916 170.091 138.297 170.391 138.597C170.69 138.896 171.071 139.1 171.486 139.183C171.901 139.266 172.331 139.223 172.722 139.061C173.113 138.899 173.447 138.624 173.682 138.272C173.917 137.92 174.042 137.506 174.042 137.082C174.042 136.514 173.817 135.969 173.416 135.568C173.015 135.166 172.471 134.94 171.903 134.94Z" fill="white"/>
<path d="M164.594 126.296H154.255V130.58H164.594C165.162 130.58 165.706 130.354 166.107 129.952C166.508 129.551 166.733 129.006 166.733 128.438C166.733 127.87 166.508 127.325 166.107 126.923C165.706 126.521 165.162 126.296 164.594 126.296Z" fill="white"/>
<path d="M189.547 126.295H179.212C178.645 126.295 178.101 126.521 177.7 126.923C177.299 127.324 177.073 127.869 177.073 128.437C177.073 129.005 177.299 129.55 177.7 129.952C178.101 130.354 178.645 130.579 179.212 130.579H189.547V126.295Z" fill="white"/>
<path d="M164.594 134.94H154.255V139.224H164.594C165.162 139.224 165.706 138.999 166.107 138.597C166.508 138.195 166.733 137.65 166.733 137.082C166.733 136.514 166.508 135.969 166.107 135.568C165.706 135.166 165.162 134.94 164.594 134.94Z" fill="white"/>
<path d="M189.547 134.94H179.212C178.645 134.94 178.101 135.166 177.7 135.567C177.299 135.969 177.073 136.514 177.073 137.082C177.073 137.65 177.299 138.195 177.7 138.597C178.101 138.998 178.645 139.224 179.212 139.224H189.547V134.94Z" fill="white"/>
<path d="M189.547 115.774C189.587 113.429 189.159 111.099 188.291 108.92C187.422 106.741 186.128 104.758 184.486 103.085C182.843 101.412 180.884 100.083 178.724 99.1765C176.563 98.2696 174.244 97.8025 171.901 97.8025C169.558 97.8025 167.239 98.2696 165.078 99.1765C162.917 100.083 160.959 101.412 159.316 103.085C157.673 104.758 156.38 106.741 155.511 108.92C154.642 111.099 154.215 113.429 154.255 115.774V151.112C154.334 155.746 156.227 160.164 159.528 163.413C162.829 166.663 167.272 168.483 171.901 168.483C176.53 168.483 180.973 166.663 184.274 163.413C187.574 160.164 189.468 155.746 189.547 151.112V115.774Z" stroke="#263238" stroke-width="0.969642" stroke-miterlimit="10"/>
<path d="M154.255 151.112C154.333 155.746 156.227 160.164 159.528 163.413C162.829 166.663 167.272 168.483 171.901 168.483C176.529 168.483 180.973 166.663 184.274 163.413C187.574 160.164 189.468 155.746 189.547 151.112H154.255Z" fill="#263238" stroke="#263238" stroke-width="0.969642" stroke-miterlimit="10"/>
<path d="M321.58 142.211C343.615 120.148 343.615 84.3753 321.58 62.3115C299.546 40.2477 263.82 40.2478 241.785 62.3115C219.75 84.3753 219.75 120.148 241.785 142.211C263.82 164.275 299.546 164.275 321.58 142.211Z" fill="#E8E8E8"/>
<path d="M273.592 78.8857H234.175C232.189 78.8857 230.579 80.4978 230.579 82.4863V121.955C230.579 123.944 232.189 125.556 234.175 125.556H273.592C275.578 125.556 277.188 123.944 277.188 121.955V82.4863C277.188 80.4978 275.578 78.8857 273.592 78.8857Z" fill="white"/>
<g opacity="0.1">
<path opacity="0.1" d="M234.974 125.561H250.529L260.441 78.8857H244.254L234.358 125.51C234.562 125.542 234.768 125.559 234.974 125.561Z" fill="black"/>
<path opacity="0.1" d="M267.032 78.8857H263.14L253.234 125.561H257.125L267.032 78.8857Z" fill="black"/>
</g>
<path d="M272.792 126.724H234.974C233.503 126.721 232.092 126.136 231.051 125.095C230.01 124.054 229.422 122.643 229.417 121.17V83.2872C229.42 81.8124 230.006 80.3987 231.048 79.3558C232.089 78.3129 233.501 77.7258 234.974 77.7231H272.792C274.266 77.7245 275.679 78.311 276.721 79.354C277.764 80.397 278.351 81.8115 278.354 83.2872V121.17C278.348 122.644 277.76 124.056 276.718 125.097C275.676 126.138 274.264 126.723 272.792 126.724ZM234.974 80.0538C234.117 80.0538 233.295 80.3943 232.689 81.0006C232.082 81.6068 231.741 82.4292 231.74 83.2872V121.17C231.74 122.029 232.08 122.854 232.687 123.462C233.293 124.07 234.116 124.412 234.974 124.414H272.792C273.217 124.414 273.638 124.33 274.031 124.167C274.423 124.004 274.78 123.765 275.081 123.463C275.381 123.162 275.619 122.804 275.781 122.411C275.944 122.017 276.027 121.596 276.026 121.17V83.2872C276.026 82.8622 275.942 82.4413 275.78 82.0487C275.617 81.6561 275.379 81.2994 275.079 80.9991C274.778 80.6988 274.422 80.4607 274.029 80.2985C273.637 80.1363 273.216 80.0532 272.792 80.0538H234.974Z" fill="white" stroke="#263238" stroke-width="0.932567" stroke-miterlimit="10"/>
<path d="M328.411 78.886H288.994C287.008 78.886 285.398 80.498 285.398 82.4866V121.956C285.398 123.944 287.008 125.556 288.994 125.556H328.411C330.397 125.556 332.007 123.944 332.007 121.956V82.4866C332.007 80.498 330.397 78.886 328.411 78.886Z" fill="white"/>
<g opacity="0.1">
<path opacity="0.1" d="M293.863 125.561H309.418L319.325 78.8857H303.143L293.221 125.51C293.433 125.543 293.648 125.56 293.863 125.561Z" fill="black"/>
<path opacity="0.1" d="M325.92 78.8857H322.029L312.117 125.561H316.014L325.92 78.8857Z" fill="black"/>
</g>
<path d="M327.612 126.724H289.794C288.322 126.721 286.912 126.136 285.871 125.095C284.83 124.054 284.242 122.643 284.237 121.17V83.2872C284.24 81.8124 284.826 80.3987 285.867 79.3558C286.909 78.3129 288.321 77.7258 289.794 77.7231H327.612C329.085 77.7245 330.499 78.311 331.541 79.354C332.584 80.397 333.171 81.8115 333.174 83.2872V121.17C333.168 122.644 332.58 124.056 331.538 125.097C330.495 126.138 329.084 126.723 327.612 126.724ZM289.794 80.0538C288.937 80.0538 288.115 80.3943 287.508 81.0006C286.902 81.6068 286.561 82.4292 286.559 83.2872V121.17C286.559 122.029 286.9 122.854 287.506 123.462C288.113 124.07 288.935 124.412 289.794 124.414H327.612C328.037 124.414 328.458 124.33 328.851 124.167C329.243 124.004 329.6 123.765 329.9 123.463C330.201 123.162 330.439 122.804 330.601 122.411C330.763 122.017 330.847 121.596 330.846 121.17V83.2872C330.846 82.8622 330.762 82.4413 330.6 82.0487C330.437 81.6561 330.199 81.2994 329.898 80.9991C329.598 80.6988 329.241 80.4607 328.849 80.2985C328.457 80.1363 328.036 80.0532 327.612 80.0538H289.794Z" fill="white" stroke="#263238" stroke-width="0.932567" stroke-miterlimit="10"/>
<path d="M283.208 211.17C297.225 211.17 308.588 209.496 308.588 207.431C308.588 205.367 297.225 203.693 283.208 203.693C269.191 203.693 257.828 205.367 257.828 207.431C257.828 209.496 269.191 211.17 283.208 211.17Z" fill="#E8E8E8"/>
<path d="M294.423 185.654C294.423 185.654 294.357 196.125 293.252 197.848C291.933 199.888 290.996 202.739 294.49 203.514C297.984 204.29 300.062 208.15 304.223 208.405C308.384 208.66 308.807 206.875 306.994 205.442C305.181 204.009 300.576 200.036 299.97 198.103C299.364 196.17 300.541 185.654 300.541 185.654H294.423Z" fill="white"/>
<path opacity="0.1" d="M299.985 191.733C300.209 188.648 300.54 185.654 300.54 185.654H294.428C294.428 185.654 294.428 188.332 294.25 191.203C296.144 191.539 298.062 191.716 299.985 191.733Z" fill="black"/>
<path d="M294.423 185.654C294.423 185.654 294.357 196.125 293.252 197.848C291.933 199.888 290.996 202.739 294.49 203.514C297.984 204.29 300.062 208.15 304.223 208.405C308.384 208.66 308.807 206.875 306.994 205.442C305.181 204.009 300.576 200.036 299.97 198.103C299.364 196.17 300.541 185.654 300.541 185.654H294.423Z" stroke="#263238" stroke-width="0.932567" stroke-linecap="round" stroke-linejoin="round"/>
<path d="M306.974 205.443C305.275 204.095 303.662 202.642 302.145 201.092C300.694 202.194 296.441 201.153 295.188 200.164C293.66 198.96 293.981 198.343 293.257 197.803L293.232 197.849C291.913 199.889 290.975 202.74 294.47 203.515C297.964 204.29 300.042 208.151 304.203 208.406C308.364 208.661 308.797 206.85 306.974 205.443Z" fill="#BFBFBF" stroke="#263238" stroke-width="0.932567" stroke-miterlimit="10"/>
<path d="M270.928 181.86C270.928 181.86 266.344 191.438 264.612 192.606C262.519 194.003 260.441 196.252 263.308 198.257C266.176 200.261 266.43 204.575 270.133 206.355C273.836 208.135 274.992 206.631 273.948 204.667C272.904 202.704 270.383 197.328 270.663 195.329C270.943 193.33 276.582 183.9 276.582 183.9L270.928 181.86Z" fill="white"/>
<path opacity="0.1" d="M270.928 181.86C270.928 181.86 269.288 185.297 267.602 188.301C268.963 189.652 270.531 190.777 272.247 191.631C274.004 188.225 276.582 183.915 276.582 183.915L270.928 181.86Z" fill="black"/>
<path d="M270.928 181.86C270.928 181.86 266.344 191.438 264.612 192.606C262.519 194.003 260.441 196.252 263.308 198.257C266.176 200.261 266.43 204.575 270.133 206.355C273.836 208.135 274.992 206.631 273.948 204.667C272.904 202.704 270.383 197.328 270.663 195.329C270.943 193.33 276.582 183.9 276.582 183.9L270.928 181.86Z" stroke="#263238" stroke-width="0.932567" stroke-linecap="round" stroke-linejoin="round"/>
<path d="M273.948 204.642C272.972 202.773 272.121 200.84 271.402 198.858C269.593 199.333 265.835 196.91 265.422 195.431C264.622 192.58 265.096 193.315 264.663 192.55L264.622 192.58C262.529 193.978 260.451 196.227 263.318 198.231C266.186 200.235 266.441 204.55 270.143 206.33C273.846 208.11 274.992 206.605 273.948 204.642Z" fill="#BFBFBF" stroke="#263238" stroke-width="0.932567" stroke-miterlimit="10"/>
<path d="M295.162 114.086C295.162 114.086 302.176 147.746 302.644 158.726C303.113 169.707 301.289 189.291 301.289 189.291L293.502 188.781C293.502 188.781 293.451 182.992 292.671 174.934C292.208 170.145 290.751 164.556 290.914 158.905C290.914 158.905 283.514 136.929 283.784 127.285C284.054 117.641 283.784 114.866 283.784 114.866L295.162 114.086Z" fill="#263238" stroke="#263238" stroke-width="0.932567" stroke-linecap="round" stroke-linejoin="round"/>
<path d="M276.413 114.086C276.413 114.086 269.14 120.104 273.357 132.237C275.018 137.051 281.425 159.073 281.425 159.073C279.665 161.089 278.175 163.326 276.994 165.729C274.07 171.512 271.941 180.519 268.335 185.685L273.673 189.291C273.673 189.291 290.909 167.657 292.009 160.787C293.109 153.917 287.934 126.449 287.934 126.449L286.279 115.285L276.413 114.086Z" fill="#263238" stroke="#263238" stroke-width="0.932567" stroke-linecap="round" stroke-linejoin="round"/>
<path d="M308.67 91.2738C308.574 90.1338 308.19 89.037 307.554 88.0863C308.088 87.3827 308.55 86.6276 308.934 85.8321C309.322 84.8988 308.807 83.5779 307.732 85.1589C306.658 86.7399 305.476 87.8925 305.904 89.8662C306.129 91.1404 305.898 92.4532 305.252 93.5739L307.732 95.517L312.678 91.59L308.67 91.2738Z" fill="white" stroke="#263238" stroke-width="0.932567" stroke-linecap="round" stroke-linejoin="round"/>
<path d="M310.999 81.1855L306.841 82.3174C306.459 82.4216 306.233 82.8168 306.337 83.2L308.706 91.9256C308.81 92.3088 309.205 92.535 309.587 92.4308L313.746 91.2989C314.128 91.1947 314.354 90.7995 314.25 90.4163L311.881 81.6907C311.777 81.3075 311.382 81.0813 310.999 81.1855Z" fill="#263238" stroke="#263238" stroke-width="0.932567" stroke-linecap="round" stroke-linejoin="round"/>
<path d="M311.91 81.7991L306.366 83.3083L308.678 91.8223L314.222 90.313L311.91 81.7991Z" fill="#E8E8E8" stroke="#263238" stroke-width="0.932567" stroke-linecap="round" stroke-linejoin="round"/>
<path d="M310.799 84.7457C310.731 84.4833 310.562 84.2585 310.329 84.1208C310.096 83.9831 309.818 83.9437 309.556 84.0113C309.294 84.079 309.069 84.2481 308.932 84.4814C308.794 84.7148 308.755 84.9933 308.822 85.2557C308.889 85.5107 309.22 86.7092 309.332 87.1325L311.308 86.597C311.196 86.2043 310.86 84.9599 310.799 84.7457Z" fill="#263238"/>
<path d="M310.615 87.9792C310.86 87.9131 311.072 87.7577 311.208 87.5436C311.345 87.3294 311.397 87.0719 311.354 86.8215L309.393 87.3315C309.478 87.5737 309.651 87.7749 309.877 87.8949C310.104 88.015 310.367 88.0451 310.615 87.9792Z" fill="#263238"/>
<path d="M312.459 89.04L311.175 89.3919L310.911 88.4229C311.276 88.2805 311.575 88.0081 311.752 87.6579C311.929 87.3077 311.97 86.9045 311.868 86.5257L311.725 86.0157C311.723 86.0048 311.719 85.9945 311.712 85.9855C311.706 85.9764 311.697 85.9688 311.688 85.963C311.678 85.9573 311.668 85.9536 311.657 85.9521C311.646 85.9507 311.634 85.9515 311.624 85.9545L311.41 86.0106C311.399 86.0135 311.388 86.0186 311.379 86.0257C311.371 86.0328 311.363 86.0416 311.358 86.0517C311.353 86.0618 311.35 86.0729 311.349 86.0843C311.348 86.0956 311.35 86.107 311.354 86.1177C311.356 86.1286 311.361 86.1389 311.367 86.148C311.374 86.157 311.382 86.1646 311.391 86.1704C311.401 86.1761 311.412 86.1798 311.423 86.1813C311.434 86.1828 311.445 86.1819 311.456 86.1789L311.583 86.1432L311.7 86.5767C311.749 86.7565 311.762 86.9442 311.738 87.1291C311.715 87.3139 311.655 87.4923 311.562 87.654C311.47 87.8158 311.347 87.9577 311.199 88.0717C311.052 88.1856 310.884 88.2695 310.704 88.3184C310.525 88.3673 310.337 88.3802 310.153 88.3566C309.968 88.333 309.79 88.2731 309.628 88.1805C309.467 88.088 309.325 87.9644 309.211 87.817C309.097 87.6696 309.014 87.5011 308.965 87.3213L308.843 86.8878L308.97 86.8572C308.992 86.8501 309.01 86.8353 309.021 86.8155C309.032 86.7957 309.036 86.7724 309.031 86.7501C309.028 86.739 309.023 86.7286 309.016 86.7195C309.009 86.7104 309 86.7028 308.99 86.6971C308.98 86.6914 308.969 86.6878 308.958 86.6864C308.947 86.685 308.935 86.6858 308.924 86.6889L308.715 86.745C308.704 86.748 308.694 86.7531 308.685 86.7601C308.676 86.7671 308.668 86.7758 308.662 86.7858C308.657 86.7957 308.653 86.8067 308.652 86.8181C308.65 86.8295 308.651 86.8411 308.654 86.8521L308.797 87.3621C308.9 87.7404 309.139 88.0673 309.468 88.28C309.797 88.4927 310.193 88.5763 310.579 88.5147L310.839 89.4837L309.556 89.8305C309.534 89.8364 309.513 89.8467 309.495 89.8607C309.476 89.8747 309.461 89.8921 309.45 89.912C309.438 89.932 309.431 89.954 309.428 89.9767C309.426 89.9995 309.427 90.0226 309.433 90.0447L309.479 90.213L312.719 89.3307L312.673 89.1624C312.667 89.1402 312.657 89.1194 312.643 89.1013C312.629 89.0831 312.611 89.0679 312.591 89.0565C312.572 89.0451 312.55 89.0378 312.527 89.0349C312.504 89.0321 312.481 89.0338 312.459 89.04Z" fill="#263238"/>
<path d="M312.984 83.787C312.474 83.8431 312.051 84.6438 312.209 85.7709C312.367 86.898 313.401 85.674 313.462 85.317C313.523 84.96 313.956 83.6901 312.984 83.787Z" fill="white" stroke="#263238" stroke-width="0.932567" stroke-linecap="round" stroke-linejoin="round"/>
<path d="M314.104 85.4699C313.968 85.4678 313.834 85.4963 313.71 85.5533C313.587 85.6102 313.478 85.6942 313.392 85.799C313.305 85.9037 313.243 86.0266 313.21 86.1586C313.178 86.2905 313.175 86.4281 313.202 86.5613C313.299 87.6578 313.513 87.4028 313.513 87.4028C313.518 87.8546 313.61 88.3013 313.783 88.7186C314.038 89.2031 314.71 88.4687 314.71 88.0301C314.71 87.5915 314.639 85.2863 314.104 85.4699Z" fill="white" stroke="#263238" stroke-width="0.932567" stroke-linecap="round" stroke-linejoin="round"/>
<path d="M313.518 87.3824C313.518 87.3824 314.399 87.1223 314.608 86.4797L313.518 87.3824Z" fill="white"/>
<path d="M313.518 87.3824C313.518 87.3824 314.399 87.1223 314.608 86.4797" stroke="#263238" stroke-width="0.932567" stroke-linecap="round" stroke-linejoin="round"/>
<path d="M305.863 92.0184C306.034 91.3126 306.048 90.5779 305.904 89.8662C305.476 87.8925 306.652 86.7348 307.732 85.1589C308.812 83.583 309.321 84.8988 308.934 85.8321C308.55 86.6275 308.088 87.3827 307.554 88.0863C308.242 89.0096 308.632 90.1221 308.669 91.2738C308.669 91.6461 308.669 92.7579 308.669 92.7579" fill="white"/>
<path d="M305.863 92.0184C306.034 91.3126 306.048 90.5779 305.904 89.8662C305.476 87.8925 306.652 86.7348 307.732 85.1589C308.812 83.583 309.321 84.8988 308.934 85.8321C308.55 86.6275 308.088 87.3827 307.554 88.0863C308.242 89.0096 308.632 90.1221 308.669 91.2738C308.669 91.6461 308.669 92.7579 308.669 92.7579" stroke="#263238" stroke-width="0.932567" stroke-linecap="round" stroke-linejoin="round"/>
<path d="M292.203 79.6917C293.975 79.3194 294.52 78.8655 294.52 78.8655C293.191 73.5054 297.958 55.4769 282.933 54.6456C267.908 53.8143 276.312 79.3602 276.312 79.3602L277.947 79.5693L277.106 74.4336L279.062 79.6968C284.848 80.3241 288.556 80.2068 290.889 79.911C290.572 77.5947 290.54 75.2482 290.792 72.924C291.086 75.2132 291.558 77.4759 292.203 79.6917Z" fill="#263238"/>
<path d="M282.928 54.967C282.344 54.3868 281.582 54.0208 280.765 53.9282C279.948 53.8357 279.123 54.022 278.425 54.457" stroke="#263238" stroke-width="0.932567" stroke-linecap="round" stroke-linejoin="round"/>
<path d="M294.372 82.9608V82.7976C294.342 82.869 294.311 82.92 294.372 82.9608Z" fill="white" stroke="#263238" stroke-width="0.932567" stroke-linecap="round" stroke-linejoin="round"/>
<path d="M305.252 93.574L298.121 100.204L298.254 90.2693C298.278 88.7689 297.922 87.2868 297.22 85.9609C296.519 84.635 295.493 83.5083 294.24 82.6855L294.51 108.833C301.514 109.277 307.753 95.5171 307.753 95.5171C307.499 95.0333 307.144 94.6096 306.713 94.2744C306.281 93.9393 305.783 93.7005 305.252 93.574Z" fill="white"/>
<path opacity="0.1" d="M297.026 105.625C295.967 105.722 295.727 103.692 295.743 101.719C295.446 102.461 295.249 103.24 295.157 104.034C295.065 106.283 295.065 108.512 295.101 110.419C303.077 106.798 303.174 103.57 305.221 100.275C303.917 101.933 299.069 105.437 297.026 105.625Z" fill="black"/>
<path d="M305.252 93.574L298.121 100.204L298.254 90.2693C298.278 88.7689 297.922 87.2868 297.22 85.9609C296.519 84.635 295.493 83.5083 294.24 82.6855L294.51 108.833C301.514 109.277 307.753 95.5171 307.753 95.5171C307.499 95.0333 307.144 94.6096 306.713 94.2744C306.281 93.9393 305.783 93.7005 305.252 93.574V93.574Z" stroke="#263238" stroke-width="0.932567" stroke-linecap="round" stroke-linejoin="round"/>
<path d="M303.739 94.4306L305.303 92.9465L308.731 95.3027L307.732 96.9653L303.739 94.4306Z" fill="#E8E8E8" stroke="#263238" stroke-width="0.932567" stroke-linecap="round" stroke-linejoin="round"/>
<path d="M297.057 95.1601C294.184 107.91 295.61 116.289 295.61 116.289C295.61 116.289 288.678 121.211 274.106 117.039C274.106 117.039 276.755 110.445 276.042 105.416C275.609 102.32 272.705 91.1923 272.705 91.1923C272.705 91.1923 271.33 86.3268 271.962 82.3998C273.179 81.6093 275.787 80.6556 280.396 80.319C280.473 80.0609 280.526 79.7963 280.554 79.5286C280.701 78.2317 280.733 76.9245 280.651 75.6219C280.585 74.0919 280.457 72.873 280.457 72.873H286.019C286.019 72.873 286.091 74.2806 286.269 75.933C286.366 76.9071 286.503 77.9731 286.676 78.8911C286.762 79.3506 286.873 79.8051 287.008 80.2527C292.559 81.0892 294.648 82.5375 295.05 83.7972C296.94 89.4787 297.668 92.4367 297.057 95.1601Z" fill="white" stroke="#263238" stroke-width="0.932567" stroke-linecap="round" stroke-linejoin="round"/>
<path d="M286.284 76.8306C285.831 77.8506 285.265 78.6564 283.305 78.6462C281.848 78.6462 280.534 77.3559 280.386 76.8612C280.544 75.7443 280.386 75.3312 280.32 74.0664C282.193 74.0135 284.068 74.1227 285.922 74.3928C286.002 75.2111 286.122 76.0247 286.284 76.8306Z" fill="#263238"/>
<path d="M289.982 65.9117C289.982 65.1569 289.982 64.6928 289.982 64.6928C289.569 62.714 287.124 62.612 285.999 62.6171C284.812 62.6555 283.629 62.4489 282.525 62.0102C282.887 62.8761 283.485 63.6221 284.252 64.1624C280.065 63.2291 279.739 61.0157 279.897 59.8223C278.41 65.0294 276.479 65.2487 276.479 65.2487C276.479 65.2487 276.479 65.7128 276.566 66.4625C276.066 66.5774 275.624 66.8692 275.322 67.2843C275.02 67.6994 274.877 68.2099 274.921 68.7218C274.915 69.2731 275.125 69.8048 275.506 70.2031C275.887 70.6015 276.408 70.8349 276.958 70.8536C277.068 70.8487 277.177 70.8333 277.284 70.8077C278.17 74.2553 279.989 78.0038 283.712 77.8559C287.435 77.708 288.953 73.8218 289.554 70.313C289.664 70.3231 289.775 70.3231 289.885 70.313C290.437 70.2575 290.945 69.9855 291.297 69.5564C291.649 69.1273 291.817 68.576 291.764 68.0231C291.766 67.5164 291.588 67.0257 291.261 66.6388C290.935 66.2518 290.481 65.9941 289.982 65.9117Z" fill="white" stroke="#263238" stroke-width="0.932567" stroke-linecap="round" stroke-linejoin="round"/>
<path d="M282.525 71.751L283.167 72.2151C283.248 72.2755 283.346 72.3082 283.447 72.3082C283.548 72.3082 283.646 72.2755 283.727 72.2151L284.318 71.7612" stroke="#263238" stroke-width="0.932567" stroke-linecap="round" stroke-linejoin="round"/>
<path d="M284.97 68.849C284.97 68.849 285.765 67.7984 287.349 68.5379" stroke="#263238" stroke-width="0.932567" stroke-linecap="round" stroke-linejoin="round"/>
<path d="M281.507 68.8492C281.507 68.8492 280.717 67.7986 279.128 68.5381" stroke="#263238" stroke-width="0.932567" stroke-linecap="round" stroke-linejoin="round"/>
<path d="M285.001 73.6023C284.559 73.9524 284.018 74.1534 283.455 74.1763C282.892 74.1992 282.337 74.0429 281.868 73.7298" stroke="#263238" stroke-width="0.932567" stroke-linecap="round" stroke-linejoin="round"/>
<path d="M291.729 161.904C291.548 162.464 291.337 163.013 291.098 163.551" stroke="white" stroke-width="0.932567" stroke-linecap="round" stroke-linejoin="round"/>
<path d="M284.293 124.74L285.953 126.229C287.435 127.557 288.409 129.36 288.709 131.329C290.13 140.382 292.412 149.689 292.132 159.522" stroke="white" stroke-width="0.932567" stroke-linecap="round" stroke-linejoin="round"/>
<path d="M290.578 125.005L287.945 128.774L288.276 128.31" stroke="white" stroke-width="0.932567" stroke-linecap="round" stroke-linejoin="round"/>
<path d="M280.172 109.884L280.926 110.659" stroke="#263238" stroke-width="0.932567" stroke-linecap="round" stroke-linejoin="round"/>
<path d="M274.717 99.1992C275.51 102.452 276.921 105.522 278.873 108.242" stroke="#263238" stroke-width="0.932567" stroke-linecap="round" stroke-linejoin="round"/>
<path d="M274.864 64.7112L274.299 64.7339L274.38 66.7468L274.944 66.7241L274.864 64.7112Z" fill="white" stroke="#263238" stroke-width="0.932567" stroke-linecap="round" stroke-linejoin="round"/>
<path d="M292.105 63.9845L291.54 64.0073L291.621 66.0202L292.186 65.9974L292.105 63.9845Z" fill="white" stroke="#263238" stroke-width="0.932567" stroke-linecap="round" stroke-linejoin="round"/>
<path d="M282.846 55.5738C280.447 55.6714 278.179 56.6961 276.519 58.4326C274.859 60.1692 273.936 62.4824 273.943 64.8864C273.944 64.9315 273.953 64.976 273.971 65.0172C273.99 65.0585 274.016 65.0957 274.049 65.1266C274.081 65.1576 274.12 65.1816 274.162 65.1972C274.204 65.2129 274.249 65.2199 274.294 65.2179H274.89C274.978 65.2139 275.06 65.176 275.12 65.1122C275.18 65.0484 275.213 64.9637 275.211 64.8762C275.225 62.8138 276.032 60.8362 277.464 59.3538C278.896 57.8714 280.843 56.9983 282.902 56.9156C284.96 56.8329 286.97 57.547 288.516 58.9097C290.063 60.2724 291.025 62.179 291.204 64.2336C291.209 64.3206 291.249 64.4021 291.314 64.4603C291.378 64.5185 291.464 64.5489 291.551 64.5447H292.146C292.191 64.5434 292.235 64.5331 292.276 64.5142C292.317 64.4954 292.353 64.4684 292.383 64.4351C292.413 64.4017 292.436 64.3625 292.451 64.32C292.465 64.2775 292.471 64.2325 292.467 64.1877C292.296 61.7815 291.196 59.5366 289.4 57.9287C287.604 56.3208 285.253 55.4762 282.846 55.5738Z" fill="#E8E8E8" stroke="#263238" stroke-width="0.932567" stroke-linecap="round" stroke-linejoin="round"/>
<path d="M275.904 65.9421H275.772C275.388 65.9579 275.011 66.0492 274.662 66.2108C274.313 66.3725 274 66.6013 273.739 66.8843C273.214 67.4558 272.936 68.213 272.968 68.9894C272.999 69.7658 273.338 70.4977 273.909 71.0243C274.479 71.5508 275.236 71.8287 276.011 71.7969H276.138L275.904 65.9421Z" fill="#E8E8E8" stroke="#263238" stroke-width="0.932567" stroke-linecap="round" stroke-linejoin="round"/>
<path d="M276.693 68.8337C276.78 71.0063 276.933 72.4037 276.184 72.4496C275.435 72.4955 275.12 71.0777 275.033 68.8796C274.946 66.6815 275.145 65.3096 275.894 65.2586C276.643 65.2076 276.607 66.6611 276.693 68.8337Z" fill="white" stroke="#263238" stroke-width="0.932567" stroke-linecap="round" stroke-linejoin="round"/>
<path d="M290.624 65.3505H290.756C291.14 65.3351 291.523 65.3956 291.884 65.5284C292.244 65.6613 292.575 65.864 292.858 66.125C293.14 66.3859 293.368 66.7 293.529 67.0493C293.69 67.3985 293.781 67.7762 293.797 68.1606C293.812 68.545 293.752 68.9287 293.619 69.2898C293.486 69.6509 293.284 69.9822 293.023 70.2649C292.763 70.5477 292.449 70.7762 292.1 70.9376C291.751 71.0989 291.374 71.1899 290.99 71.2053H290.858L290.624 65.3505Z" fill="#E8E8E8" stroke="#263238" stroke-width="0.932567" stroke-linecap="round" stroke-linejoin="round"/>
<path d="M290.043 68.2982C290.13 70.4708 290.094 71.8682 290.843 71.8682C291.591 71.8682 291.79 70.4147 291.703 68.2421C291.617 66.0695 291.301 64.6721 290.557 64.6976C289.814 64.7231 289.956 66.1256 290.043 68.2982Z" fill="white" stroke="#263238" stroke-width="0.932567" stroke-linecap="round" stroke-linejoin="round"/>
<path d="M278.028 66.9213C278.028 66.9213 279.968 65.3148 281.807 66.7683" stroke="#263238" stroke-width="0.932567" stroke-linecap="round" stroke-linejoin="round"/>
<path d="M288.678 66.5999C288.678 66.5999 286.641 65.1566 284.899 66.7529" stroke="#263238" stroke-width="0.932567" stroke-linecap="round" stroke-linejoin="round"/>
<path d="M279.663 79.6101C279.663 79.6101 280.824 82.5273 285.133 83.1801C285.133 83.1801 283.412 86.7501 281.059 85.3476C278.242 83.6748 277.702 80.2017 277.702 80.2017L279.663 79.6101Z" fill="#E8E8E8" stroke="#263238" stroke-width="0.932567" stroke-linecap="round" stroke-linejoin="round"/>
<path d="M287.558 79.9722C287.574 80.7488 287.316 81.5062 286.83 82.1115C286.343 82.7167 285.66 83.1312 284.899 83.2821C284.899 83.2821 286.992 86.7195 288.709 84.8121C290.425 82.9047 289.091 80.3088 289.091 80.3088L287.558 79.9722Z" fill="#E8E8E8" stroke="#263238" stroke-width="0.932567" stroke-linecap="round" stroke-linejoin="round"/>
<path d="M286.6 90.0957C286.6 90.1966 286.57 90.2952 286.514 90.379C286.458 90.4629 286.379 90.5283 286.286 90.5669C286.193 90.6055 286.09 90.6156 285.992 90.5959C285.893 90.5762 285.802 90.5276 285.731 90.4563C285.659 90.385 285.611 90.2941 285.591 90.1952C285.572 90.0963 285.582 89.9937 285.62 89.9005C285.659 89.8073 285.724 89.7277 285.808 89.6716C285.892 89.6156 285.99 89.5857 286.091 89.5857C286.226 89.5857 286.355 89.6394 286.451 89.7351C286.547 89.8307 286.6 89.9604 286.6 90.0957Z" fill="#E8E8E8" stroke="#263238" stroke-width="0.932567" stroke-linecap="round" stroke-linejoin="round"/>
<path d="M287.293 100.138C287.293 100.239 287.263 100.337 287.207 100.421C287.151 100.505 287.071 100.57 286.978 100.609C286.885 100.647 286.783 100.658 286.684 100.638C286.585 100.618 286.494 100.57 286.423 100.498C286.352 100.427 286.303 100.336 286.284 100.237C286.264 100.138 286.274 100.036 286.313 99.9425C286.351 99.8493 286.417 99.7697 286.5 99.7136C286.584 99.6576 286.683 99.6277 286.783 99.6277C286.918 99.6277 287.048 99.6814 287.144 99.7771C287.239 99.8727 287.293 100.002 287.293 100.138Z" fill="#E8E8E8" stroke="#263238" stroke-width="0.932567" stroke-linecap="round" stroke-linejoin="round"/>
<path d="M287.944 110.419C287.944 110.52 287.915 110.619 287.859 110.703C287.803 110.786 287.723 110.852 287.63 110.89C287.537 110.929 287.435 110.939 287.336 110.919C287.237 110.9 287.146 110.851 287.075 110.78C287.004 110.708 286.955 110.618 286.936 110.519C286.916 110.42 286.926 110.317 286.965 110.224C287.003 110.131 287.068 110.051 287.152 109.995C287.236 109.939 287.334 109.909 287.435 109.909C287.57 109.909 287.7 109.963 287.795 110.059C287.891 110.154 287.944 110.284 287.944 110.419Z" fill="#E8E8E8" stroke="#263238" stroke-width="0.932567" stroke-linecap="round" stroke-linejoin="round"/>
<path d="M332.827 42.0435H229.626C229.148 42.0435 228.76 42.4316 228.76 42.9105V44.772C228.76 45.2508 229.148 45.639 229.626 45.639H332.827C333.305 45.639 333.693 45.2508 333.693 44.772V42.9105C333.693 42.4316 333.305 42.0435 332.827 42.0435Z" fill="white"/>
<path d="M332.654 45.6392H229.799" stroke="#263238" stroke-width="0.932567" stroke-linecap="round" stroke-linejoin="round"/>
<path d="M229.799 42.0435H332.654" stroke="#263238" stroke-width="0.932567" stroke-linecap="round" stroke-linejoin="round"/>
<path d="M261.816 66.2379C261.816 66.2379 257.563 65.6412 257.334 66.7836C257.105 67.926 257.232 69.7569 257.965 70.3536C259.351 71.4858 259.096 73.6023 259.096 73.6023L262.661 73.2555L262.753 71.4705C262.936 70.8882 263.264 70.3618 263.705 69.9405C264.989 68.7318 264.48 67.3905 264.261 65.7738C264.042 64.1571 262.977 64.8762 262.891 65.7126C262.865 66.4584 262.927 67.2047 263.074 67.9362L261.816 66.2379Z" fill="white" stroke="#263238" stroke-width="0.932567" stroke-linecap="round" stroke-linejoin="round"/>
<path d="M262.814 67.8086C262.814 67.8086 261.795 68.0177 260.991 69.461L262.814 67.8086Z" fill="white"/>
<path d="M262.814 67.8086C262.814 67.8086 261.795 68.0177 260.991 69.461" stroke="#263238" stroke-width="0.932567" stroke-linecap="round" stroke-linejoin="round"/>
<path d="M262.814 68.1862H257.66C257.302 68.197 256.948 68.1222 256.625 67.9678C256.303 67.8134 256.022 67.584 255.806 67.2988C255.621 67.0397 255.522 66.7295 255.522 66.4114C255.522 66.0933 255.621 65.7831 255.806 65.524L258.383 61.7347C258.606 61.4533 258.889 61.226 259.212 61.0697C259.535 60.9134 259.889 60.8323 260.247 60.8323C260.606 60.8323 260.96 60.9134 261.282 61.0697C261.605 61.226 261.889 61.4533 262.111 61.7347L264.694 65.524C264.878 65.7831 264.977 66.0933 264.977 66.4114C264.977 66.7295 264.878 67.0397 264.694 67.2988C264.476 67.5883 264.191 67.8204 263.863 67.975C263.536 68.1296 263.176 68.2021 262.814 68.1862ZM256.702 65.9422C256.605 66.0774 256.553 66.2398 256.553 66.4063C256.553 66.5728 256.605 66.7351 256.702 66.8704C256.815 67.018 256.961 67.1366 257.128 67.2165C257.295 67.2963 257.479 67.335 257.665 67.3294H262.814C263 67.3354 263.184 67.2969 263.351 67.217C263.519 67.1372 263.665 67.0183 263.777 66.8704C263.875 66.7354 263.927 66.573 263.927 66.4063C263.927 66.2396 263.875 66.0771 263.777 65.9422L261.2 62.158C261.087 62.0067 260.94 61.885 260.771 61.8033C260.601 61.7215 260.415 61.6823 260.227 61.6888C260.039 61.6818 259.853 61.7209 259.685 61.8027C259.516 61.8845 259.37 62.0065 259.259 62.158L256.677 65.9473L256.702 65.9422Z" fill="#263238"/>
<path d="M258.693 66.2887C258.958 67.6351 258.795 68.1145 258.184 68.0431C257.573 67.9717 256.957 66.3193 257.802 65.9419C258.648 65.5645 259.33 65.2738 259.33 65.2738C259.601 65.1273 259.902 65.0459 260.21 65.0361C260.517 65.0264 260.823 65.0886 261.103 65.2177C262.315 64.7944 262.529 65.6767 262.529 65.6767C262.529 65.6767 263.405 68.2267 262.676 68.3134C261.948 68.4001 261.347 66.1867 261.347 66.1867C261.347 66.1867 262.259 68.6143 261.423 68.6551C260.588 68.6959 260.104 66.2989 260.104 66.2989C260.104 66.2989 260.649 68.4052 259.86 68.4766C259.07 68.548 258.693 66.2887 258.693 66.2887Z" fill="white" stroke="#263238" stroke-width="0.932567" stroke-linecap="round" stroke-linejoin="round"/>
<path d="M260.619 44.675H259.784V61.4183H260.619V44.675Z" fill="white" stroke="#263238" stroke-width="0.932567" stroke-linecap="round" stroke-linejoin="round"/>
<path d="M261.082 61.1582L260.537 61.9589C260.502 62.0045 260.456 62.0413 260.404 62.0667C260.352 62.092 260.295 62.1052 260.237 62.1052C260.179 62.1052 260.122 62.092 260.07 62.0667C260.018 62.0413 259.972 62.0045 259.936 61.9589L259.396 61.1582C259.264 60.9695 259.432 60.7349 259.692 60.7349H260.782C261.047 60.7349 261.21 60.9899 261.082 61.1582Z" fill="white" stroke="#263238" stroke-width="0.932567" stroke-linecap="round" stroke-linejoin="round"/>
<path d="M260.685 55.5381H259.794C259.549 55.5381 259.351 55.7367 259.351 55.9818V59.6946C259.351 59.9396 259.549 60.1383 259.794 60.1383H260.685C260.93 60.1383 261.128 59.9396 261.128 59.6946V55.9818C261.128 55.7367 260.93 55.5381 260.685 55.5381Z" fill="white" stroke="#263238" stroke-width="0.932567" stroke-linecap="round" stroke-linejoin="round"/>
<path d="M260.685 41.4673H259.794C259.549 41.4673 259.351 41.6659 259.351 41.911V45.6238C259.351 45.8688 259.549 46.0675 259.794 46.0675H260.685C260.93 46.0675 261.128 45.8688 261.128 45.6238V41.911C261.128 41.6659 260.93 41.4673 260.685 41.4673Z" fill="white" stroke="#263238" stroke-width="0.932567" stroke-linecap="round" stroke-linejoin="round"/>
<path d="M250.697 68.186H245.543C245.185 68.1969 244.83 68.122 244.508 67.9677C244.185 67.8133 243.904 67.5839 243.689 67.2986C243.504 67.0395 243.405 66.7293 243.405 66.4112C243.405 66.0932 243.504 65.783 243.689 65.5238L246.266 61.7346C246.489 61.4531 246.773 61.2257 247.096 61.0695C247.419 60.9132 247.774 60.832 248.132 60.832C248.491 60.832 248.846 60.9132 249.169 61.0695C249.492 61.2257 249.776 61.4531 249.999 61.7346L252.576 65.5238C252.761 65.783 252.86 66.0932 252.86 66.4112C252.86 66.7293 252.761 67.0395 252.576 67.2986C252.359 67.5881 252.074 67.8202 251.746 67.9748C251.419 68.1294 251.059 68.2019 250.697 68.186ZM244.585 65.942C244.488 66.0773 244.436 66.2396 244.436 66.4061C244.436 66.5727 244.488 66.735 244.585 66.8702C244.697 67.0179 244.843 67.1365 245.011 67.2163C245.178 67.2962 245.362 67.3349 245.548 67.3292H250.702C250.888 67.3348 251.073 67.2962 251.241 67.2164C251.409 67.1366 251.556 67.018 251.67 66.8702C251.767 66.735 251.819 66.5727 251.819 66.4061C251.819 66.2396 251.767 66.0773 251.67 65.942L249.093 62.1578C248.98 62.0066 248.833 61.8849 248.664 61.8031C248.494 61.7214 248.308 61.6821 248.12 61.6886C247.932 61.6816 247.746 61.7207 247.578 61.8026C247.409 61.8844 247.263 62.0064 247.152 62.1578L244.57 65.9471L244.585 65.942Z" fill="#263238"/>
<path d="M248.502 44.675H247.667V61.4183H248.502V44.675Z" fill="white" stroke="#263238" stroke-width="0.932567" stroke-linecap="round" stroke-linejoin="round"/>
<path d="M248.965 61.1584L248.4 61.9591C248.364 62.0047 248.319 62.0416 248.267 62.0669C248.215 62.0923 248.157 62.1055 248.099 62.1055C248.042 62.1055 247.984 62.0923 247.932 62.0669C247.88 62.0416 247.835 62.0047 247.799 61.9591L247.259 61.1584C247.127 60.9697 247.295 60.7351 247.555 60.7351H248.644C248.909 60.7351 249.093 60.9901 248.965 61.1584Z" fill="white" stroke="#263238" stroke-width="0.932567" stroke-linecap="round" stroke-linejoin="round"/>
<path d="M248.568 55.5381H247.677C247.432 55.5381 247.234 55.7367 247.234 55.9818V59.6946C247.234 59.9396 247.432 60.1383 247.677 60.1383H248.568C248.813 60.1383 249.011 59.9396 249.011 59.6946V55.9818C249.011 55.7367 248.813 55.5381 248.568 55.5381Z" fill="white" stroke="#263238" stroke-width="0.932567" stroke-linecap="round" stroke-linejoin="round"/>
<path d="M248.568 41.4673H247.677C247.432 41.4673 247.234 41.6659 247.234 41.911V45.6238C247.234 45.8688 247.432 46.0675 247.677 46.0675H248.568C248.813 46.0675 249.011 45.8688 249.011 45.6238V41.911C249.011 41.6659 248.813 41.4673 248.568 41.4673Z" fill="white" stroke="#263238" stroke-width="0.932567" stroke-linecap="round" stroke-linejoin="round"/>
<path d="M303.209 68.1859H298.055C297.697 68.1977 297.342 68.1232 297.02 67.9687C296.697 67.8143 296.416 67.5844 296.201 67.2985C296.016 67.0394 295.917 66.7292 295.917 66.4111C295.917 66.0931 296.016 65.7829 296.201 65.5237L298.778 61.7344C299.001 61.4531 299.284 61.2257 299.607 61.0695C299.93 60.9132 300.284 60.832 300.642 60.832C301.001 60.832 301.355 60.9132 301.677 61.0695C302 61.2257 302.284 61.4531 302.506 61.7344L305.084 65.5237C305.268 65.7829 305.367 66.0931 305.367 66.4111C305.367 66.7292 305.268 67.0394 305.084 67.2985C304.866 67.5873 304.582 67.819 304.256 67.9735C303.929 68.1281 303.57 68.201 303.209 68.1859ZM297.097 65.9419C296.999 66.0769 296.947 66.2393 296.947 66.406C296.947 66.5728 296.999 66.7352 297.097 66.8701C297.209 67.0181 297.355 67.137 297.523 67.2168C297.69 67.2967 297.874 67.3352 298.06 67.3291H303.214C303.4 67.3352 303.584 67.2967 303.751 67.2168C303.919 67.137 304.065 67.0181 304.177 66.8701C304.275 66.7352 304.327 66.5728 304.327 66.406C304.327 66.2393 304.275 66.0769 304.177 65.9419L301.6 62.1577C301.483 62.0111 301.335 61.8928 301.167 61.8114C300.998 61.73 300.814 61.6877 300.627 61.6877C300.44 61.6877 300.255 61.73 300.087 61.8114C299.918 61.8928 299.77 62.0111 299.654 62.1577L297.077 65.947L297.097 65.9419Z" fill="#263238"/>
<path d="M301.009 44.675H300.174V61.4183H301.009V44.675Z" fill="white" stroke="#263238" stroke-width="0.932567" stroke-linecap="round" stroke-linejoin="round"/>
<path d="M301.473 61.1582L300.933 61.9589C300.897 62.0045 300.851 62.0413 300.799 62.0667C300.747 62.092 300.69 62.1052 300.632 62.1052C300.574 62.1052 300.517 62.092 300.465 62.0667C300.413 62.0413 300.368 62.0045 300.332 61.9589L299.792 61.1582C299.659 60.9695 299.828 60.7349 300.087 60.7349H301.177C301.437 60.7349 301.605 60.9899 301.473 61.1582Z" fill="white" stroke="#263238" stroke-width="0.932567" stroke-linecap="round" stroke-linejoin="round"/>
<path d="M301.081 55.5381H300.189C299.944 55.5381 299.746 55.7367 299.746 55.9818V59.6946C299.746 59.9396 299.944 60.1383 300.189 60.1383H301.081C301.325 60.1383 301.524 59.9396 301.524 59.6946V55.9818C301.524 55.7367 301.325 55.5381 301.081 55.5381Z" fill="white" stroke="#263238" stroke-width="0.932567" stroke-linecap="round" stroke-linejoin="round"/>
<path d="M301.081 41.4673H300.189C299.944 41.4673 299.746 41.6659 299.746 41.911V45.6238C299.746 45.8688 299.944 46.0675 300.189 46.0675H301.081C301.325 46.0675 301.524 45.8688 301.524 45.6238V41.911C301.524 41.6659 301.325 41.4673 301.081 41.4673Z" fill="white" stroke="#263238" stroke-width="0.932567" stroke-linecap="round" stroke-linejoin="round"/>
<path d="M314.756 68.186H309.601C309.244 68.1969 308.889 68.122 308.567 67.9677C308.244 67.8133 307.963 67.5839 307.748 67.2986C307.563 67.0395 307.464 66.7293 307.464 66.4112C307.464 66.0932 307.563 65.783 307.748 65.5238L310.325 61.7346C310.548 61.4531 310.832 61.2257 311.155 61.0695C311.478 60.9132 311.833 60.832 312.191 60.832C312.55 60.832 312.905 60.9132 313.228 61.0695C313.551 61.2257 313.835 61.4531 314.058 61.7346L316.635 65.5238C316.82 65.783 316.919 66.0932 316.919 66.4112C316.919 66.7293 316.82 67.0395 316.635 67.2986C316.418 67.5881 316.133 67.8202 315.805 67.9748C315.478 68.1294 315.118 68.2019 314.756 68.186ZM308.644 65.942C308.547 66.0773 308.495 66.2396 308.495 66.4061C308.495 66.5727 308.547 66.735 308.644 66.8702C308.756 67.0179 308.902 67.1365 309.07 67.2163C309.237 67.2962 309.421 67.3349 309.607 67.3292H314.761C314.947 67.3348 315.132 67.2962 315.3 67.2164C315.468 67.1366 315.615 67.018 315.729 66.8702C315.826 66.735 315.878 66.5727 315.878 66.4061C315.878 66.2396 315.826 66.0773 315.729 65.942L313.152 62.1578C313.039 62.0066 312.892 61.8849 312.723 61.8031C312.553 61.7214 312.367 61.6821 312.179 61.6886C311.991 61.6816 311.805 61.7207 311.636 61.8026C311.468 61.8844 311.322 62.0064 311.211 62.1578L308.629 65.9471L308.644 65.942Z" fill="#263238"/>
<path d="M312.561 44.675H311.726V61.4183H312.561V44.675Z" fill="white" stroke="#263238" stroke-width="0.932567" stroke-linecap="round" stroke-linejoin="round"/>
<path d="M313.024 61.1584L312.479 61.9591C312.443 62.0047 312.398 62.0416 312.346 62.0669C312.294 62.0923 312.237 62.1055 312.179 62.1055C312.121 62.1055 312.064 62.0923 312.012 62.0669C311.96 62.0416 311.914 62.0047 311.878 61.9591L311.338 61.1584C311.206 60.9697 311.374 60.7351 311.634 60.7351H312.724C312.989 60.7351 313.152 60.9901 313.024 61.1584Z" fill="white" stroke="#263238" stroke-width="0.932567" stroke-linecap="round" stroke-linejoin="round"/>
<path d="M312.627 55.5381H311.736C311.491 55.5381 311.293 55.7367 311.293 55.9818V59.6946C311.293 59.9396 311.491 60.1383 311.736 60.1383H312.627C312.872 60.1383 313.07 59.9396 313.07 59.6946V55.9818C313.07 55.7367 312.872 55.5381 312.627 55.5381Z" fill="white" stroke="#263238" stroke-width="0.932567" stroke-linecap="round" stroke-linejoin="round"/>
<path d="M312.627 41.4673H311.736C311.491 41.4673 311.293 41.6659 311.293 41.911V45.6238C311.293 45.8688 311.491 46.0675 311.736 46.0675H312.627C312.872 46.0675 313.07 45.8688 313.07 45.6238V41.911C313.07 41.6659 312.872 41.4673 312.627 41.4673Z" fill="white" stroke="#263238" stroke-width="0.932567" stroke-linecap="round" stroke-linejoin="round"/>
<path d="M263.212 72.4497L263.482 74.6274L257.94 74.8875L258.403 72.7047L263.212 72.4497Z" fill="#E8E8E8" stroke="#263238" stroke-width="0.932567" stroke-linecap="round" stroke-linejoin="round"/>
<path d="M272.608 90.7536C272.608 90.7536 262.987 99.6123 260.766 99.75C260.221 99.7857 259.748 100.127 259.289 99.8163C258.271 99.1227 256.799 97.6539 257.013 91.6869C257.125 88.4229 259.096 74.8212 259.096 74.8212L262.661 74.6631L263.527 89.9631C266.583 86.7909 271.895 82.3947 271.901 82.3947C273.561 87.7089 272.608 90.7536 272.608 90.7536Z" fill="white" stroke="#263238" stroke-width="0.932567" stroke-linecap="round" stroke-linejoin="round"/>
<path d="M296.873 103.07C297.113 102.012 297.569 101.015 298.213 100.143L296.873 103.07Z" fill="white"/>
<path d="M296.873 103.07C297.113 102.012 297.569 101.015 298.213 100.143" stroke="#263238" stroke-width="0.932567" stroke-linecap="round" stroke-linejoin="round"/>
<path d="M262.438 93.5635C262.809 93.3952 263.696 91.7377 263.512 88.9072" stroke="#263238" stroke-width="0.932567" stroke-linecap="round" stroke-linejoin="round"/>
<path d="M265.855 57.2312V51.1367C265.856 50.8422 265.974 50.5602 266.182 50.352C266.39 50.1438 266.671 50.0262 266.965 50.0249H276.52C276.814 50.0262 277.096 50.1438 277.304 50.352C277.512 50.5602 277.629 50.8422 277.631 51.1367V57.2312C277.631 57.5261 277.514 57.8089 277.305 58.0174C277.097 58.2259 276.815 58.343 276.52 58.343H273.194L273.459 60.6635H271.743V62.8565L269.705 59.2865H271.371L271.198 58.3481H266.96C266.814 58.3474 266.67 58.318 266.536 58.2615C266.401 58.205 266.279 58.1226 266.177 58.0189C266.074 57.9151 265.993 57.7922 265.937 57.6571C265.882 57.5219 265.854 57.3772 265.855 57.2312Z" fill="white" stroke="#263238" stroke-width="0.932567" stroke-linecap="round" stroke-linejoin="round"/>
<path d="M274.137 52.1108H267.678" stroke="#263238" stroke-width="0.932567" stroke-linecap="round" stroke-linejoin="round"/>
<path d="M275.807 53.8398H267.678" stroke="#263238" stroke-width="0.932567" stroke-linecap="round" stroke-linejoin="round"/>
<path d="M274.554 55.5635H267.678" stroke="#263238" stroke-width="0.932567" stroke-linecap="round" stroke-linejoin="round"/>
<path d="M53.3457 208.074C66.4795 208.074 77.1265 206.505 77.1265 204.57C77.1265 202.635 66.4795 201.067 53.3457 201.067C40.212 201.067 29.5649 202.635 29.5649 204.57C29.5649 206.505 40.212 208.074 53.3457 208.074Z" fill="#E8E8E8"/>
<path d="M51.2625 148.736C74.1348 148.736 92.6764 130.17 92.6764 107.267C92.6764 84.3652 74.1348 65.7993 51.2625 65.7993C28.3903 65.7993 9.84863 84.3652 9.84863 107.267C9.84863 130.17 28.3903 148.736 51.2625 148.736Z" fill="#E8E8E8"/>
<path d="M32.1622 134.384C32.1622 134.384 33.2165 140.504 29.6562 147.384H74.1771C74.1771 147.384 72.1398 144.176 70.0056 134.384H32.1622Z" fill="white" stroke="#263238" stroke-width="0.87381" stroke-linecap="round" stroke-linejoin="round"/>
<path d="M42.3131 135.797C39.8762 135.992 37.5405 136.858 35.5633 138.297C33.5861 139.737 32.0443 141.696 31.1078 143.957C30.629 145.12 30.1299 146.298 29.6562 147.399C26.9466 153.677 29.5085 162.812 36.4354 162.812H68.1975C74.4775 162.812 76.194 154.85 74.6915 148.853C73.7237 144.997 71.773 141.126 68.4419 138.413C63.9904 134.767 50.982 135.103 42.3131 135.797Z" fill="#263238" stroke="#263238" stroke-width="0.87381" stroke-linecap="round" stroke-linejoin="round"/>
<path d="M11.9878 129.06C11.9878 129.06 6.29343 132.507 6.10498 134.384H13.0879L15.8638 132.39L14.9266 134.394H17.0506C17.0506 134.394 19.3069 132.64 19.4291 130.697L19.1999 129.06L15.1253 127.244L11.9878 129.06Z" fill="white" stroke="#263238" stroke-width="0.87381" stroke-linecap="round" stroke-linejoin="round"/>
<path d="M78.6901 116.396C78.6901 116.396 77.7784 110.394 75.7767 101.749C73.7751 93.1048 69.8634 92.4265 69.8634 92.4265H69.8277C64.7344 90.2335 51.4917 89.0503 51.4917 89.0503H50.8805C50.8805 89.0503 37.6073 90.2335 32.5445 92.4265H32.5089C32.5089 92.4265 28.5616 93.1201 26.5599 101.749C24.5582 110.378 23.6414 116.396 23.6414 116.396C23.6414 116.396 20.0251 117.376 13.5158 125.576C12.4939 126.877 11.624 128.29 10.9233 129.789C10.9233 129.789 15.925 128.142 19.4292 130.666C19.4292 130.666 30.9096 125.791 31.4851 120.65C31.4851 120.466 31.531 120.262 31.5564 120.043C31.8824 127.846 32.1625 134.364 32.1625 134.364H70.169C70.169 134.364 70.4542 127.846 70.7802 120.043C70.7802 120.262 70.826 120.466 70.8464 120.65C71.427 125.791 84.1349 131.554 84.1349 131.554C87.6188 126.188 92.6764 129.152 92.6764 129.152L78.6901 116.396Z" fill="white"/>
<path opacity="0.3" d="M31.4851 120.66C31.4851 120.507 31.5259 120.334 31.5462 120.15L30.716 102.091C30.716 102.091 28.424 102.56 29.0811 108.104C29.7381 113.647 31.1184 112.694 30.3493 114.831C29.5802 116.968 26.5955 114.52 25.6074 116.361C24.6193 118.202 31.1286 117.809 28.4393 122.552C25.75 127.295 19.4292 130.712 19.4292 130.712C19.4292 130.712 30.9147 125.811 31.4851 120.66Z" fill="black"/>
<g opacity="0.3">
<path opacity="0.3" d="M71.0249 120.66C71.0249 120.507 72.5223 120.772 71.0249 120.66L71.4782 105.202C71.4782 105.202 71.3662 112.678 72.1658 114.83C72.9655 116.983 75.9196 114.519 76.9026 116.36C77.8856 118.202 71.3814 117.809 74.0758 122.552C76.7702 127.295 83.0808 130.712 83.0808 130.712C83.0808 130.712 71.6055 125.811 71.0249 120.66Z" fill="black"/>
</g>
<path opacity="0.3" d="M70.4442 124.179C70.1946 130.029 70.0061 134.379 70.0061 134.379H35.835C58.755 134.379 70.4696 124.179 70.4696 124.179H70.4442Z" fill="black"/>
<path d="M78.6901 116.396C78.6901 116.396 77.7784 110.394 75.7768 101.749C73.7751 93.1048 69.8634 92.4265 69.8634 92.4265H69.8277C64.7344 90.2335 51.4917 89.0503 51.4917 89.0503H50.8805C50.8805 89.0503 37.6073 90.2335 32.5445 92.4265H32.5089C32.5089 92.4265 28.5616 93.1201 26.5599 101.749C24.5582 110.378 23.6414 116.396 23.6414 116.396C23.6414 116.396 20.0251 117.376 13.5158 125.576C12.4939 126.877 11.624 128.29 10.9233 129.789V129.789C10.9233 129.789 15.925 128.142 19.4292 130.666C19.4292 130.666 30.9096 125.791 31.4851 120.65C31.4851 120.466 31.531 120.262 31.5564 120.043C31.8824 127.846 32.1625 134.364 32.1625 134.364H70.169C70.169 134.364 70.4542 127.846 70.7802 120.043C70.7802 120.262 70.826 120.466 70.8464 120.65C71.427 125.791 84.1349 131.554 84.1349 131.554C87.6188 126.188 92.6764 129.152 92.6764 129.152L78.6901 116.396Z" stroke="#263238" stroke-width="0.87381" stroke-linecap="round" stroke-linejoin="round"/>
<path d="M24.8584 116.361C26.6912 116.269 28.4875 116.896 29.8651 118.11" stroke="#263238" stroke-width="0.87381" stroke-linecap="round" stroke-linejoin="round"/>
<path d="M28.439 102.632C28.439 102.632 30.7921 103.142 31.332 114.596L30.624 99.5615" stroke="#263238" stroke-width="0.87381" stroke-linecap="round" stroke-linejoin="round"/>
<path d="M31.3627 116.187L31.47 118.508" stroke="#263238" stroke-width="0.87381" stroke-linecap="round" stroke-linejoin="round"/>
<path d="M77.4779 116.361C75.6487 116.262 73.8527 116.88 72.4712 118.085" stroke="#263238" stroke-width="0.87381" stroke-linecap="round" stroke-linejoin="round"/>
<path d="M71.5693 102.632C71.6136 101.612 71.6613 100.592 71.7124 99.5715" stroke="#263238" stroke-width="0.87381" stroke-linecap="round" stroke-linejoin="round"/>
<path d="M58.3015 89.8765C57.6852 92.9671 54.7005 94.084 51.1046 94.084C47.5087 94.084 44.5342 92.9722 43.9077 89.8918H44.0503C44.4228 89.841 44.7712 89.6783 45.0494 89.4252C45.3277 89.1721 45.5227 88.8404 45.6089 88.474C45.6588 88.3279 45.6846 88.1746 45.6853 88.0201V84.394H56.6869V88.0201C56.6856 88.2469 56.727 88.4718 56.8091 88.6831C56.9277 88.998 57.129 89.2751 57.3916 89.4851C57.6542 89.6951 57.9686 89.8303 58.3015 89.8765Z" fill="white"/>
<path d="M56.5949 87.1073C54.7715 88.9025 52.7392 90.0194 50.7783 90.1061C48.741 90.1979 46.3777 88.5251 45.415 86.8829C45.4548 86.7402 45.4737 86.5925 45.4711 86.4443V85.3325L56.4727 85.4498V86.4443C56.4727 86.6789 56.7528 86.9543 56.5949 87.1073Z" fill="#263238"/>
<path d="M58.3015 89.8765C57.6852 92.9671 54.7005 94.084 51.1046 94.084C47.5087 94.084 44.5342 92.9722 43.9077 89.8918H44.0503C44.4228 89.841 44.7712 89.6783 45.0494 89.4252C45.3277 89.1721 45.5227 88.8404 45.6089 88.474C45.6588 88.3279 45.6846 88.1746 45.6853 88.0201V84.394H56.6869V88.0201C56.6856 88.2469 56.727 88.4718 56.8091 88.6831C56.9277 88.998 57.129 89.2751 57.3916 89.4851C57.6542 89.6951 57.9686 89.8303 58.3015 89.8765V89.8765Z" stroke="#263238" stroke-width="0.87381" stroke-linecap="round" stroke-linejoin="round"/>
<path d="M43.0673 76.6063C43.0673 76.6063 39.2524 72.2866 39.7516 66.3349C40.2507 60.3832 45.1301 60.3832 45.1301 60.3832C45.1301 60.3832 51.0129 55.1863 57.5782 58.4401C64.1435 61.6939 63.6902 72.9751 58.8312 75.7801L43.0673 76.6063Z" fill="#263238"/>
<path d="M59.8854 73.6994C59.9363 72.71 59.9312 72.098 59.9312 72.098C59.4932 69.4664 56.2793 69.2012 54.8022 69.1553C48.6138 68.9462 46.984 65.1467 46.984 65.1467C43.2302 64.0196 42.1657 72.098 42.1657 72.098C42.1657 72.098 42.1657 72.71 42.2166 73.6994C41.5535 73.8261 40.9581 74.1875 40.5392 74.7174C40.1202 75.2474 39.9057 75.9107 39.9348 76.586C39.9348 78.1976 41.0961 79.4981 42.5324 79.4981C42.6776 79.4974 42.8225 79.4837 42.9653 79.4573L43.6377 83.2517C43.765 84.1034 44.5646 86.1179 45.2828 86.5973C46.8108 87.6173 49.2301 89.0708 51.0485 89.0708C52.6172 89.0708 54.8175 87.7754 56.4423 86.8931C57.3489 86.3831 58.3472 84.4298 58.4338 83.4047L58.8565 79.5695C59.0953 79.5581 59.3333 79.5342 59.5696 79.4981C61.0008 79.4981 62.1672 78.1976 62.1672 76.586C62.1963 75.9107 61.9818 75.2474 61.5628 74.7174C61.1439 74.1875 60.5485 73.8261 59.8854 73.6994Z" fill="white" stroke="#263238" stroke-width="0.87381" stroke-linecap="round" stroke-linejoin="round"/>
<path d="M40.9331 71.2512H40.2607V73.6482H40.9331V71.2512Z" fill="white" stroke="#263238" stroke-width="0.87381" stroke-linecap="round" stroke-linejoin="round"/>
<path d="M61.4745 71.2512H60.8022V73.6482H61.4745V71.2512Z" fill="white" stroke="#263238" stroke-width="0.87381" stroke-linecap="round" stroke-linejoin="round"/>
<path d="M50.8652 60.781C48.0059 60.7804 45.2578 61.8905 43.1992 63.8775C41.1407 65.8646 39.9321 68.5737 39.8279 71.4349C39.8259 71.4882 39.8346 71.5413 39.8537 71.5911C39.8728 71.6409 39.9018 71.6862 39.939 71.7244C39.9762 71.7626 40.0207 71.7928 40.0699 71.8131C40.1191 71.8335 40.172 71.8436 40.2252 71.8429H40.9383C41.0419 71.8429 41.1414 71.8024 41.2157 71.73C41.2899 71.6576 41.3329 71.559 41.3356 71.4553C41.4489 69.0009 42.5025 66.6846 44.2772 64.9879C46.0519 63.2911 48.4114 62.3443 50.8652 62.3443C53.319 62.3443 55.6785 63.2911 57.4532 64.9879C59.2279 66.6846 60.2815 69.0009 60.3948 71.4553C60.3988 71.5595 60.4429 71.6581 60.5179 71.7304C60.593 71.8026 60.6931 71.843 60.7972 71.8429H61.5052C61.5586 71.8436 61.6117 71.8335 61.6612 71.8132C61.7106 71.7929 61.7555 71.7627 61.7931 71.7246C61.8306 71.6866 61.8602 71.6413 61.8798 71.5915C61.8995 71.5417 61.9089 71.4884 61.9075 71.4349C61.8021 68.5733 60.5924 65.8641 58.533 63.8772C56.4737 61.8902 53.725 60.7804 50.8652 60.781Z" fill="white" stroke="#263238" stroke-width="0.87381" stroke-linecap="round" stroke-linejoin="round"/>
<path d="M42.0793 72.7864H41.9265C41.0249 72.8209 40.1717 73.2038 39.546 73.8547C38.9203 74.5056 38.5708 75.3739 38.5708 76.2773C38.5708 77.1808 38.9203 78.0491 39.546 78.7C40.1717 79.3509 41.0249 79.7338 41.9265 79.7683H42.0793V72.7864Z" fill="#263238" stroke="#263238" stroke-width="0.87381" stroke-miterlimit="10"/>
<path d="M42.9093 76.2902C42.9093 78.8759 43.0214 80.5589 42.13 80.5589C41.2387 80.5589 40.9331 78.8759 40.9331 76.2902C40.9331 73.7045 41.2387 72.0164 42.13 72.0164C43.0214 72.0164 42.9093 73.679 42.9093 76.2902Z" fill="white" stroke="#263238" stroke-width="0.87381" stroke-linecap="round" stroke-linejoin="round"/>
<path d="M59.6562 72.7864H59.809C60.7106 72.8209 61.5638 73.2038 62.1894 73.8547C62.8151 74.5056 63.1647 75.3739 63.1647 76.2773C63.1647 77.1808 62.8151 78.0491 62.1894 78.7C61.5638 79.3509 60.7106 79.7338 59.809 79.7683H59.6562V72.7864Z" fill="#263238" stroke="#263238" stroke-width="0.87381" stroke-miterlimit="10"/>
<path d="M58.8208 76.2902C58.8208 78.8759 58.7139 80.5589 59.6052 80.5589C60.4966 80.5589 60.8022 78.8759 60.8022 76.2902C60.8022 73.7045 60.4966 72.0164 59.6052 72.0164C58.7139 72.0164 58.8208 73.679 58.8208 76.2902Z" fill="white" stroke="#263238" stroke-width="0.87381" stroke-linecap="round" stroke-linejoin="round"/>
<path d="M44.9058 76.9175C44.9058 76.9175 46.3574 78.7076 49.0772 77.2949" stroke="#263238" stroke-width="0.87381" stroke-linecap="round" stroke-linejoin="round"/>
<path d="M49.0771 83.8789C49.6775 84.3155 50.4005 84.5507 51.1425 84.5507C51.8845 84.5507 52.6075 84.3155 53.2079 83.8789" stroke="#263238" stroke-width="0.75" stroke-linecap="round" stroke-linejoin="round"/>
<path d="M44.5035 74.5151C44.5035 74.5151 47.1367 72.5057 49.4797 74.5151" stroke="#263238" stroke-width="0.87381" stroke-linecap="round" stroke-linejoin="round"/>
<path d="M57.4357 74.5815C57.4357 74.5815 54.8024 72.5415 52.4595 74.5815" stroke="#263238" stroke-width="0.87381" stroke-linecap="round" stroke-linejoin="round"/>
<path d="M53.0552 81.0637C53.0552 81.0637 53.2895 82.3693 50.9007 82.3387C50.315 82.3387 49.2505 81.9205 49.2148 81.0637" stroke="#263238" stroke-width="0.75" stroke-linecap="round" stroke-linejoin="round"/>
<path d="M45.4766 77.3916C45.6956 77.8251 46.1896 78.3249 47.2949 78.3504C48.4001 78.3759 48.5937 77.9373 48.6141 77.5089C48.1215 77.7482 47.5778 77.8627 47.0307 77.8422C46.4836 77.8218 45.9499 77.667 45.4766 77.3916Z" fill="#263238"/>
<path d="M57.0533 76.9175C57.0533 76.9175 55.6017 78.7076 52.8818 77.2949" stroke="#263238" stroke-width="0.87381" stroke-linecap="round" stroke-linejoin="round"/>
<path d="M56.4832 77.3916C56.2642 77.8251 55.7701 78.3249 54.6649 78.3504C53.5596 78.3759 53.3661 77.9373 53.3457 77.5089C53.8381 77.7487 54.3819 77.8634 54.9291 77.8429C55.4763 77.8225 56.01 77.6675 56.4832 77.3916Z" fill="#263238"/>
<path d="M46.383 57.8994C46.383 57.8994 45.0434 58.6491 45.1911 60.7809C45.1911 60.7809 44.7225 59.3427 43.001 59.97" stroke="#263238" stroke-width="0.87381" stroke-linecap="round" stroke-linejoin="round"/>
<path d="M51.1656 95.67C52.9211 95.6696 54.6336 95.126 56.0687 94.1135C57.5038 93.1011 58.5913 91.6693 59.1825 90.0141C58.719 89.9427 58.2606 89.8815 57.8175 89.8203C57.1195 90.9585 56.1417 91.8984 54.9777 92.5505C53.8136 93.2026 52.502 93.5449 51.1681 93.5449C49.8343 93.5449 48.5227 93.2026 47.3586 92.5505C46.1945 91.8984 45.2168 90.9585 44.5188 89.8203C44.0756 89.8815 43.6172 89.9427 43.1537 90.0141C43.7446 91.6685 44.8314 93.0997 46.2654 94.1121C47.6995 95.1245 49.4109 95.6686 51.1656 95.67Z" fill="#263238" stroke="#263238" stroke-width="0.87381" stroke-linecap="round" stroke-linejoin="round"/>
<path d="M70.7798 120.063C71.0039 115.093 71.2297 110.12 71.4572 105.146" stroke="#263238" stroke-width="0.87381" stroke-linecap="round" stroke-linejoin="round"/>
<path d="M70.9479 69.2573V63.7646C70.9479 63.4941 70.8406 63.2347 70.6496 63.0434C70.4585 62.8521 70.1994 62.7446 69.9293 62.7446H61.3419C61.0717 62.7446 60.8126 62.8521 60.6216 63.0434C60.4306 63.2347 60.3232 63.4941 60.3232 63.7646V69.2573C60.3232 69.5279 60.4306 69.7873 60.6216 69.9786C60.8126 70.1699 61.0717 70.2773 61.3419 70.2773H64.3368L64.0974 72.3683H65.6254V74.342L67.4539 71.1239H65.9514L66.1093 70.2773H69.9242C70.0584 70.278 70.1914 70.2521 70.3156 70.2012C70.4397 70.1502 70.5526 70.0752 70.6478 69.9804C70.7429 69.8856 70.8184 69.7729 70.8699 69.6488C70.9214 69.5248 70.9479 69.3917 70.9479 69.2573Z" fill="white" stroke="#263238" stroke-width="0.87381" stroke-linecap="round" stroke-linejoin="round"/>
<path d="M61.9838 64.6467H67.8055" stroke="#263238" stroke-width="0.87381" stroke-linecap="round" stroke-linejoin="round"/>
<path d="M61.9838 66.2021H69.3029" stroke="#263238" stroke-width="0.87381" stroke-linecap="round" stroke-linejoin="round"/>
<path d="M61.9838 67.7578H68.1773" stroke="#263238" stroke-width="0.87381" stroke-linecap="round" stroke-linejoin="round"/>
<path d="M97.3313 131.727C97.3313 133.349 94.7847 134.364 91.6574 134.364C88.5301 134.364 85.9834 133.344 85.9834 131.727C85.9834 130.11 88.5301 128.784 91.6574 128.784C94.7847 128.784 97.3313 130.1 97.3313 131.727Z" fill="white" stroke="#263238" stroke-width="0.87381" stroke-linecap="round" stroke-linejoin="round"/>
<path d="M87.9851 133.777C88.1379 133.742 88.2602 132.885 86.8799 132.247C85.9223 131.809 85.8969 131.345 86.4469 130.773C86.997 130.202 87.9342 129.723 88.6574 129.932C89.834 130.268 90.6133 132.722 91.1379 132.191C91.9274 131.987 90.9749 129.738 89.564 128.999C92.1107 129.631 92.233 132.569 93.4044 132.334C94.3008 132.161 92.7525 129.243 91.4129 128.381C92.2714 128.782 93.0222 129.382 93.6031 130.131C94.4536 131.37 94.5504 131.788 95.1311 131.61C95.8849 131.37 94.0869 128.647 93.8628 128.351C94.9935 128.8 95.2075 129.748 95.5538 130.131C95.9002 130.513 96.0631 131.151 96.5419 130.901C97.0207 130.651 96.5776 129.764 96.2567 129.243C94.7287 126.77 92.182 126.357 89.7576 126.663C87.8425 126.908 85.6422 127.713 84.4758 129.243C84.1791 129.625 84.0046 130.087 83.9755 130.57C83.9464 131.052 84.064 131.532 84.3128 131.946C84.7203 132.808 86.177 134.185 87.9851 133.777Z" fill="white" stroke="#263238" stroke-width="0.87381" stroke-linecap="round" stroke-linejoin="round"/>
<path d="M98.8188 134.384H5.08621C4.80773 134.384 4.58197 134.61 4.58197 134.889V135.7C4.58197 135.979 4.80773 136.205 5.08621 136.205H98.8188C99.0973 136.205 99.3231 135.979 99.3231 135.7V134.889C99.3231 134.61 99.0973 134.384 98.8188 134.384Z" fill="#BFBFBF" stroke="#263238" stroke-width="0.87381" stroke-miterlimit="10"/>
<path d="M7.8366 134.384L0.940228 113.398C0.914237 113.316 0.907491 113.229 0.920519 113.144C0.933547 113.06 0.965993 112.979 1.01532 112.909C1.06465 112.839 1.12952 112.781 1.20485 112.74C1.28019 112.699 1.36394 112.676 1.44956 112.673H23.2337L30.9909 134.384H7.8366Z" fill="#263238"/>
<path d="M23.8298 112.673L30.9605 133.165H50.0605V133.884C50.0605 134.019 50.0068 134.149 49.9113 134.245C49.8158 134.341 49.6862 134.394 49.5511 134.394H29.7381L22.8773 113.52C22.8469 113.426 22.839 113.327 22.8542 113.229C22.8694 113.132 22.9073 113.039 22.9649 112.959C23.0224 112.879 23.098 112.814 23.1854 112.769C23.2729 112.724 23.3697 112.7 23.4682 112.699L23.8298 112.673Z" fill="white" stroke="#263238" stroke-width="0.87381" stroke-linecap="round" stroke-linejoin="round"/>
<path d="M13.7141 123.531C13.6468 123.175 13.481 122.844 13.2354 122.578C13.342 122.451 13.4757 122.351 13.6265 122.284C13.7773 122.217 13.9414 122.185 14.1063 122.19C14.4913 122.206 14.8604 122.348 15.1574 122.594C15.4544 122.84 15.663 123.176 15.7515 123.552C15.7986 123.714 15.8063 123.886 15.774 124.052C15.7417 124.218 15.6703 124.374 15.5658 124.508C15.4612 124.641 15.3265 124.747 15.1728 124.817C15.0191 124.888 14.8508 124.921 14.6819 124.913C14.2913 124.904 13.9163 124.758 13.6224 124.5C13.7693 124.199 13.8019 123.855 13.7141 123.531Z" fill="white"/>
<path d="M57.8482 134.384H64.8108C65.7384 133.704 66.49 132.812 67.003 131.782C67.516 130.752 67.7755 129.614 67.7599 128.463V125.184C67.7599 125.059 67.7354 124.936 67.6878 124.821C67.6402 124.706 67.5704 124.601 67.4824 124.513C67.3944 124.425 67.29 124.355 67.1751 124.307C67.0601 124.26 66.9369 124.235 66.8125 124.235H55.872C55.7479 124.235 55.6249 124.26 55.5103 124.307C55.3956 124.355 55.2915 124.425 55.2039 124.513C55.1164 124.601 55.0471 124.706 55 124.821C54.953 124.936 54.9291 125.059 54.9298 125.184V128.463C54.9102 129.611 55.1648 130.748 55.6724 131.778C56.1801 132.808 56.926 133.701 57.8482 134.384Z" fill="white" stroke="#263238" stroke-width="0.87381" stroke-linecap="round" stroke-linejoin="round"/>
<path d="M69.7358 125.633C69.4423 125.448 69.1061 125.342 68.7597 125.326C68.4134 125.31 68.0688 125.384 67.7595 125.541V126.724C68.0613 126.673 68.3711 126.735 68.6305 126.897C69.6135 127.469 69.4047 128.636 68.7171 129.825C68.4026 130.498 67.8618 131.04 67.1891 131.355C66.9881 131.845 66.7336 132.312 66.4302 132.747C67.7392 133.033 68.9361 131.921 69.8733 130.299C70.9734 128.392 71.3045 126.54 69.7358 125.633Z" fill="white" stroke="#263238" stroke-width="0.87381" stroke-linecap="round" stroke-linejoin="round"/>
<path d="M61.4745 119.069C61.7276 118.243 61.853 117.383 61.8463 116.519C61.8463 111.725 57.3438 111.159 57.3438 105.712" stroke="#263238" stroke-width="0.87381" stroke-linecap="round" stroke-linejoin="round"/>
<path d="M58.2808 123.297C59.0963 122.788 59.8013 122.12 60.3537 121.333" stroke="#263238" stroke-width="0.87381" stroke-linecap="round" stroke-linejoin="round"/>
<path d="M61.0831 110.281C60.8308 109.813 60.7258 109.28 60.7818 108.751" stroke="#263238" stroke-width="0.87381" stroke-linecap="round" stroke-linejoin="round"/>
<path d="M64.5914 117.014C64.3622 115.514 63.5015 114.107 62.6509 112.826" stroke="#263238" stroke-width="0.87381" stroke-linecap="round" stroke-linejoin="round"/>
<path d="M61.9838 123.353C61.9838 123.353 63.4711 122.726 64.286 119.895" stroke="#263238" stroke-width="0.87381" stroke-linecap="round" stroke-linejoin="round"/>
<path d="M71.0807 162.796H32.9418C30.157 162.796 27.8994 165.057 27.8994 167.845V193.09C27.8994 195.879 30.157 198.139 32.9418 198.139H71.0807C73.8655 198.139 76.1231 195.879 76.1231 193.09V167.845C76.1231 165.057 73.8655 162.796 71.0807 162.796Z" fill="white" stroke="#263238" stroke-width="0.87381" stroke-miterlimit="10"/>
<path d="M39.9551 187.113L40.5307 197.196L40.5969 197.282C41.0527 197.895 41.6466 198.391 42.3302 198.73C43.0139 199.069 43.7678 199.241 44.5306 199.233C45.2934 199.224 46.0434 199.035 46.7194 198.681C47.3953 198.327 47.9782 197.818 48.4203 197.196L48.6342 187.113H39.9551Z" fill="white" stroke="#263238" stroke-width="0.87381" stroke-linecap="round" stroke-linejoin="round"/>
<path d="M50.5391 207.049C46.6756 207.727 42.7236 207.727 38.8601 207.049C38.4994 206.692 38.1892 206.287 37.9382 205.845C37.5477 205.149 37.3271 204.371 37.2943 203.573C37.2616 202.775 37.4176 201.981 37.7497 201.255L40.0774 197.099L49.3014 197.201L51.3795 200.995C51.8782 201.896 52.093 202.926 51.9958 203.951C51.8985 204.976 51.4937 205.948 50.8345 206.738C50.7415 206.847 50.6429 206.951 50.5391 207.049Z" fill="#BFBFBF" stroke="#263238" stroke-width="0.87381" stroke-miterlimit="10"/>
<path d="M48.2725 201.816C48.843 202.068 49.3873 202.375 49.8972 202.734L48.2725 201.816Z" fill="#BFBFBF"/>
<path d="M48.2725 201.816C48.843 202.068 49.3873 202.375 49.8972 202.734" stroke="#263238" stroke-width="0.87381" stroke-miterlimit="10"/>
<path d="M39.5732 202.734C40.5856 202.04 41.7255 201.555 42.9268 201.305C44.1281 201.056 45.3669 201.047 46.5714 201.281" fill="#BFBFBF"/>
<path d="M39.5732 202.734C40.5856 202.04 41.7255 201.555 42.9268 201.305C44.1281 201.056 45.3669 201.047 46.5714 201.281" stroke="#263238" stroke-width="0.87381" stroke-miterlimit="10"/>
<path d="M34.9893 145.502L39.0639 192.259H49.602C49.602 192.259 50.6462 163.699 51.3083 145.155C51.3516 144.055 51.1722 142.958 50.7808 141.929C50.3894 140.9 49.7941 139.961 49.0309 139.169C48.2676 138.377 47.3521 137.747 46.3395 137.318C45.3269 136.889 44.2381 136.67 43.1386 136.674C42.0099 136.67 40.8927 136.901 39.8578 137.352C38.8229 137.804 37.893 138.465 37.1268 139.295C36.3607 140.125 35.775 141.105 35.4071 142.174C35.0391 143.242 34.8969 144.376 34.9893 145.502Z" fill="#263238"/>
<path d="M45.4764 137.006C44.7091 136.78 43.9128 136.668 43.1131 136.674V136.674C41.9866 136.674 40.8722 136.907 39.8403 137.36C38.8085 137.813 37.8816 138.475 37.1182 139.305C36.3548 140.134 35.7714 141.113 35.405 142.18C35.0386 143.247 34.897 144.378 34.9893 145.502L36.4358 162.796" stroke="white" stroke-width="0.87381" stroke-linecap="round" stroke-linejoin="round"/>
<path d="M49.8768 140.193C49.4594 139.599 48.9682 139.061 48.4151 138.592C48.4151 138.592 47.7784 138.082 47.4932 137.918" stroke="white" stroke-width="0.87381" stroke-linecap="round" stroke-linejoin="round"/>
<path d="M50.6104 162.796C50.8192 157.008 51.1452 150.235 51.3235 145.155C51.3722 143.894 51.1281 142.639 50.6104 141.489" stroke="white" stroke-width="0.87381" stroke-linecap="round" stroke-linejoin="round"/>
<path d="M57.0991 187.113L57.6747 197.196L57.7409 197.282C58.1966 197.895 58.7906 198.391 59.4742 198.73C60.1578 199.069 60.9118 199.241 61.6746 199.233C62.4374 199.224 63.1873 199.035 63.8633 198.681C64.5393 198.327 65.1221 197.818 65.5642 197.196L65.7781 187.113H57.0991Z" fill="white" stroke="#263238" stroke-width="0.87381" stroke-linecap="round" stroke-linejoin="round"/>
<path d="M67.6833 207.049C63.8197 207.727 59.8678 207.727 56.0043 207.049C55.6444 206.692 55.3358 206.287 55.0875 205.845C54.695 205.15 54.4728 204.372 54.4391 203.574C54.4055 202.776 54.5613 201.981 54.8939 201.255L57.2267 197.099L66.4456 197.201L68.5237 200.995C69.0224 201.896 69.2372 202.926 69.1399 203.951C69.0427 204.976 68.6378 205.948 67.9787 206.738C67.8857 206.847 67.7871 206.951 67.6833 207.049Z" fill="#BFBFBF" stroke="#263238" stroke-width="0.87381" stroke-miterlimit="10"/>
<path d="M65.4165 201.816C65.9877 202.067 66.532 202.374 67.0413 202.734L65.4165 201.816Z" fill="#BFBFBF"/>
<path d="M65.4165 201.816C65.9877 202.067 66.532 202.374 67.0413 202.734" stroke="#263238" stroke-width="0.87381" stroke-miterlimit="10"/>
<path d="M56.7275 202.734C57.74 202.041 58.8799 201.555 60.0812 201.305C61.2824 201.056 62.5212 201.047 63.7257 201.281" fill="#BFBFBF"/>
<path d="M56.7275 202.734C57.74 202.041 58.8799 201.555 60.0812 201.305C61.2824 201.056 62.5212 201.047 63.7257 201.281" stroke="#263238" stroke-width="0.87381" stroke-miterlimit="10"/>
<path d="M52.1485 145.502L56.2231 192.259H66.7612C66.7612 192.259 67.8054 163.699 68.4726 145.155C68.5124 144.053 68.3292 142.953 67.9341 141.924C67.5389 140.894 66.9398 139.954 66.1729 139.162C65.406 138.37 64.4871 137.741 63.4713 137.314C62.4556 136.886 61.364 136.668 60.2621 136.674C59.1364 136.675 58.0231 136.91 56.9925 137.363C55.9619 137.817 55.0362 138.479 54.2739 139.308C53.5116 140.138 52.9292 141.116 52.5634 142.182C52.1976 143.248 52.0563 144.379 52.1485 145.502Z" fill="#263238"/>
<path d="M63.6237 137.378C62.5659 136.907 61.4199 136.667 60.2621 136.674C59.1364 136.675 58.0231 136.91 56.9925 137.363C55.9619 137.817 55.0362 138.479 54.2739 139.308C53.5116 140.138 52.9292 141.116 52.5634 142.182C52.1976 143.248 52.0563 144.379 52.1485 145.502L53.6765 162.796" stroke="white" stroke-width="0.87381" stroke-linecap="round" stroke-linejoin="round"/>
<path d="M67.0213 140.193C66.6066 139.597 66.1151 139.059 65.5596 138.592" stroke="white" stroke-width="0.87381" stroke-linecap="round" stroke-linejoin="round"/>
<path d="M68.1979 162.796C68.4067 157.008 68.2896 150.235 68.4729 145.155C68.5142 144.039 68.327 142.927 67.9229 141.886" stroke="white" stroke-width="0.87381" stroke-linecap="round" stroke-linejoin="round"/>
<path d="M193.01 65.9216V44.1599C193.01 43.1076 192.593 42.0984 191.85 41.3543C191.106 40.6102 190.099 40.1921 189.048 40.1921H154.953C153.902 40.1921 152.894 40.6102 152.151 41.3543C151.408 42.0984 150.99 43.1076 150.99 44.1599V65.9216C150.99 66.974 151.408 67.9832 152.151 68.7273C152.894 69.4714 153.902 69.8894 154.953 69.8894H166.825L165.888 78.1718H172V85.9799L179.253 73.2299H173.304L173.931 69.8843H189.048C190.098 69.8843 191.105 69.467 191.848 68.724C192.591 67.981 193.009 66.9731 193.01 65.9216Z" fill="white" stroke="#263238" stroke-width="1.02547" stroke-linecap="round" stroke-linejoin="round"/>
<path d="M157.499 47.6382H180.552" stroke="#263238" stroke-width="1.02547" stroke-linecap="round" stroke-linejoin="round"/>
<path d="M157.499 53.8042H186.501" stroke="#263238" stroke-width="1.02547" stroke-linecap="round" stroke-linejoin="round"/>
<path d="M157.499 59.97H182.039" stroke="#263238" stroke-width="1.02547" stroke-linecap="round" stroke-linejoin="round"/>
<path d="M219.052 159.104L239.65 165.979L234.541 171.099L244.076 180.646L223.478 173.771L228.587 168.651L219.052 159.104Z" fill="#E8E8E8" stroke="#263238" stroke-width="1.02547" stroke-linecap="round" stroke-linejoin="round"/>
<path d="M124.948 159.104L104.35 165.979L109.459 171.099L99.9243 180.646L120.522 173.771L115.413 168.651L124.948 159.104Z" fill="#E8E8E8" stroke="#263238" stroke-width="1.02547" stroke-linecap="round" stroke-linejoin="round"/>
<path d="M171.424 1.39136L161.711 20.8428H168.944V34.3476L178.652 14.8962H171.424V1.39136Z" fill="#E8E8E8" stroke="#263238" stroke-width="1.02547" stroke-linecap="round" stroke-linejoin="round"/>
</svg>
