<svg width="346" height="312" viewBox="0 0 346 312" fill="none" xmlns="http://www.w3.org/2000/svg">
<path d="M319.897 86.533H250.228V244.577H319.897V86.533Z" stroke="#263238" stroke-width="0.75" stroke-linecap="round" stroke-linejoin="round"/>
<path d="M313.782 92.6482H256.343V238.461H313.782V92.6482Z" stroke="#263238" stroke-width="0.75" stroke-linecap="round" stroke-linejoin="round"/>
<path d="M262.872 157.029L261.304 159.751" stroke="#263238" stroke-width="0.75" stroke-linecap="round" stroke-linejoin="round"/>
<path d="M279.361 128.481L264.681 153.909" stroke="#263238" stroke-width="0.75" stroke-linecap="round" stroke-linejoin="round"/>
<path d="M292.831 105.144L281.708 124.41" stroke="#263238" stroke-width="0.75" stroke-linecap="round" stroke-linejoin="round"/>
<path d="M295.187 101.072L294.001 103.116" stroke="#263238" stroke-width="0.75" stroke-linecap="round" stroke-linejoin="round"/>
<path d="M267.544 226.332L266.21 228.641" stroke="#263238" stroke-width="0.75" stroke-linecap="round" stroke-linejoin="round"/>
<path d="M270.633 220.981L269.221 223.438" stroke="#263238" stroke-width="0.75" stroke-linecap="round" stroke-linejoin="round"/>
<path d="M289.47 188.354L273.659 215.748" stroke="#263238" stroke-width="0.75" stroke-linecap="round" stroke-linejoin="round"/>
<path d="M303.47 164.104L291.092 185.554" stroke="#263238" stroke-width="0.75" stroke-linecap="round" stroke-linejoin="round"/>
<path d="M306.536 158.8L305.312 160.921" stroke="#263238" stroke-width="0.75" stroke-linecap="round" stroke-linejoin="round"/>
<path d="M285.063 208.884L273.659 228.641" stroke="#263238" stroke-width="0.75" stroke-linecap="round" stroke-linejoin="round"/>
<path d="M299.649 183.62L286.724 206.006" stroke="#263238" stroke-width="0.75" stroke-linecap="round" stroke-linejoin="round"/>
<path d="M302.683 178.37L301.154 181.014" stroke="#263238" stroke-width="0.75" stroke-linecap="round" stroke-linejoin="round"/>
<path d="M261.304 177.481L259.572 180.484" stroke="#263238" stroke-width="0.75" stroke-linecap="round" stroke-linejoin="round"/>
<path d="M276.459 151.234L262.692 175.078" stroke="#263238" stroke-width="0.75" stroke-linecap="round" stroke-linejoin="round"/>
<path d="M295.374 118.474L278.082 148.418" stroke="#263238" stroke-width="0.75" stroke-linecap="round" stroke-linejoin="round"/>
<path d="M306.739 98.7866L296.708 116.165" stroke="#263238" stroke-width="0.75" stroke-linecap="round" stroke-linejoin="round"/>
<path d="M95.7721 86.533H26.1025V244.577H95.7721V86.533Z" stroke="#263238" stroke-width="0.75" stroke-linecap="round" stroke-linejoin="round"/>
<path d="M89.657 92.6482H32.2178V238.461H89.657V92.6482Z" stroke="#263238" stroke-width="0.75" stroke-linecap="round" stroke-linejoin="round"/>
<path d="M38.7465 157.029L37.1787 159.751" stroke="#263238" stroke-width="0.75" stroke-linecap="round" stroke-linejoin="round"/>
<path d="M55.2279 128.481L40.5483 153.909" stroke="#263238" stroke-width="0.75" stroke-linecap="round" stroke-linejoin="round"/>
<path d="M68.7063 105.144L57.5835 124.41" stroke="#263238" stroke-width="0.75" stroke-linecap="round" stroke-linejoin="round"/>
<path d="M71.0538 101.072L69.876 103.116" stroke="#263238" stroke-width="0.75" stroke-linecap="round" stroke-linejoin="round"/>
<path d="M43.4188 226.333L42.085 228.641" stroke="#263238" stroke-width="0.75" stroke-linecap="round" stroke-linejoin="round"/>
<path d="M46.5075 220.981L45.0879 223.438" stroke="#263238" stroke-width="0.75" stroke-linecap="round" stroke-linejoin="round"/>
<path d="M65.3443 188.354L49.5259 215.748" stroke="#263238" stroke-width="0.75" stroke-linecap="round" stroke-linejoin="round"/>
<path d="M79.3454 164.104L66.959 185.554" stroke="#263238" stroke-width="0.75" stroke-linecap="round" stroke-linejoin="round"/>
<path d="M82.4106 158.8L81.1782 160.921" stroke="#263238" stroke-width="0.75" stroke-linecap="round" stroke-linejoin="round"/>
<path d="M60.9373 208.884L49.5259 228.641" stroke="#263238" stroke-width="0.75" stroke-linecap="round" stroke-linejoin="round"/>
<path d="M75.5232 183.62L62.5986 206.006" stroke="#263238" stroke-width="0.75" stroke-linecap="round" stroke-linejoin="round"/>
<path d="M78.5497 178.37L77.0287 181.014" stroke="#263238" stroke-width="0.75" stroke-linecap="round" stroke-linejoin="round"/>
<path d="M37.1784 177.481L35.439 180.484" stroke="#263238" stroke-width="0.75" stroke-linecap="round" stroke-linejoin="round"/>
<path d="M52.3261 151.234L38.5591 175.078" stroke="#263238" stroke-width="0.75" stroke-linecap="round" stroke-linejoin="round"/>
<path d="M71.2413 118.474L53.9565 148.418" stroke="#263238" stroke-width="0.75" stroke-linecap="round" stroke-linejoin="round"/>
<path d="M82.6055 98.7866L72.5747 116.165" stroke="#263238" stroke-width="0.75" stroke-linecap="round" stroke-linejoin="round"/>
<path d="M1.01001 310.455H344.99" stroke="#263238" stroke-linecap="round" stroke-linejoin="round"/>
<path d="M120.498 248.664H114.531V268.951H120.498V248.664Z" fill="white"/>
<path opacity="0.2" d="M120.498 248.664H114.531V268.951H120.498V248.664Z" fill="black"/>
<path d="M126.473 250.895H120.506V268.952H126.473V250.895Z" fill="white"/>
<path d="M133.922 250.895H129.71V268.952H133.922V250.895Z" fill="white"/>
<path opacity="0.9" d="M133.922 250.895H129.71V268.952H133.922V250.895Z" fill="white"/>
<path d="M129.718 248.991H125.896V268.959H129.718V248.991Z" fill="white"/>
<path opacity="0.1" d="M129.718 248.991H125.896V268.959H129.718V248.991Z" fill="black"/>
<path d="M139.897 248.664H133.93V268.952H139.897V248.664Z" fill="white"/>
<path d="M145.863 250.895H139.896V268.952H145.863V250.895Z" fill="white"/>
<path opacity="0.2" d="M145.863 250.895H139.896V268.952H145.863V250.895Z" fill="#263238"/>
<path d="M153.32 250.895H149.108V268.952H153.32V250.895Z" fill="white"/>
<path opacity="0.8" d="M153.32 250.895H149.108V268.952H153.32V250.895Z" fill="white"/>
<path d="M149.109 248.991H145.287V268.959H149.109V248.991Z" fill="white"/>
<path opacity="0.1" d="M149.109 248.991H145.287V268.959H149.109V248.991Z" fill="black"/>
<path d="M181.79 268.959H187.757V248.672H181.79V268.959Z" fill="white"/>
<path opacity="0.2" d="M181.79 268.959H187.757V248.672H181.79V268.959Z" fill="black"/>
<path d="M175.816 268.959H181.783V250.902H175.816V268.959Z" fill="white"/>
<path d="M168.367 268.959H172.579V250.902H168.367V268.959Z" fill="white"/>
<path opacity="0.9" d="M168.367 268.959H172.579V250.902H168.367V268.959Z" fill="white"/>
<path d="M172.571 268.952H176.393V248.984H172.571V268.952Z" fill="white"/>
<path opacity="0.1" d="M172.571 268.952H176.393V248.984H172.571V268.952Z" fill="black"/>
<path d="M162.392 268.959H168.359V248.672H162.392V268.959Z" fill="white"/>
<path d="M156.425 268.959H162.392V250.902H156.425V268.959Z" fill="white"/>
<path opacity="0.2" d="M156.425 268.959H162.392V250.902H156.425V268.959Z" fill="#263238"/>
<path d="M153.18 268.952H157.002V248.984H153.18V268.952Z" fill="white"/>
<path opacity="0.1" d="M153.18 268.952H157.002V248.984H153.18V268.952Z" fill="black"/>
<path d="M216.188 268.959H222.155V248.672H216.188V268.959Z" fill="white"/>
<path opacity="0.2" d="M216.188 268.959H222.155V248.672H216.188V268.959Z" fill="black"/>
<path d="M210.214 268.959H216.181V250.902H210.214V268.959Z" fill="white"/>
<path d="M202.765 268.959H206.977V250.902H202.765V268.959Z" fill="white"/>
<path opacity="0.9" d="M202.765 268.959H206.977V250.902H202.765V268.959Z" fill="white"/>
<path d="M206.969 268.952H210.791V248.984H206.969V268.952Z" fill="white"/>
<path opacity="0.1" d="M206.969 268.952H210.791V248.984H206.969V268.952Z" fill="black"/>
<path d="M196.79 268.959H202.757V248.672H196.79V268.959Z" fill="white"/>
<path d="M226.04 268.242L229.959 267.192L224.684 247.513L220.765 248.563L226.04 268.242Z" fill="white"/>
<path d="M190.823 268.959H196.79V250.902H190.823V268.959Z" fill="white"/>
<path opacity="0.2" d="M190.823 268.959H196.79V250.902H190.823V268.959Z" fill="#263238"/>
<path d="M187.578 268.952H191.4V248.984H187.578V268.952Z" fill="white"/>
<path opacity="0.1" d="M187.578 268.952H191.4V248.984H187.578V268.952Z" fill="black"/>
<path d="M228.038 295.313L232.046 294.239L226.795 274.643L222.787 275.717L228.038 295.313Z" fill="white"/>
<path opacity="0.2" d="M228.038 295.313L232.046 294.239L226.795 274.643L222.787 275.717L228.038 295.313Z" fill="black"/>
<path d="M217.741 295.113H223.708V277.056H217.741V295.113Z" fill="white"/>
<path d="M210.276 295.113H214.488V277.056H210.276V295.113Z" fill="white"/>
<path opacity="0.9" d="M210.276 295.113H214.488V277.056H210.276V295.113Z" fill="white"/>
<path d="M214.488 295.121H218.31V275.153H214.488V295.121Z" fill="white"/>
<path opacity="0.1" d="M214.488 295.121H218.31V275.153H214.488V295.121Z" fill="black"/>
<path d="M204.317 295.121H210.284V274.833H204.317V295.121Z" fill="white"/>
<path d="M198.342 295.113H204.309V277.056H198.342V295.113Z" fill="white"/>
<path opacity="0.2" d="M198.342 295.113H204.309V277.056H198.342V295.113Z" fill="#263238"/>
<path d="M190.893 295.113H195.105V277.056H190.893V295.113Z" fill="white"/>
<path opacity="0.8" d="M190.893 295.113H195.105V277.056H190.893V295.113Z" fill="white"/>
<path d="M195.097 295.121H198.919V275.153H195.097V295.121Z" fill="white"/>
<path opacity="0.1" d="M195.097 295.121H198.919V275.153H195.097V295.121Z" fill="black"/>
<path d="M162.423 274.833H156.456V295.121H162.423V274.833Z" fill="white"/>
<path opacity="0.2" d="M162.423 274.833H156.456V295.121H162.423V274.833Z" fill="black"/>
<path d="M168.39 277.063H162.423V295.12H168.39V277.063Z" fill="white"/>
<path d="M175.847 277.063H171.635V295.12H175.847V277.063Z" fill="white"/>
<path opacity="0.9" d="M175.847 277.063H171.635V295.12H175.847V277.063Z" fill="white"/>
<path d="M171.635 275.153H167.813V295.121H171.635V275.153Z" fill="white"/>
<path opacity="0.1" d="M171.635 275.153H167.813V295.121H171.635V275.153Z" fill="black"/>
<path d="M181.814 274.833H175.847V295.121H181.814V274.833Z" fill="white"/>
<path d="M187.781 277.063H181.814V295.12H187.781V277.063Z" fill="white"/>
<path opacity="0.2" d="M187.781 277.063H181.814V295.12H187.781V277.063Z" fill="#263238"/>
<path d="M191.026 275.153H187.204V295.121H191.026V275.153Z" fill="white"/>
<path opacity="0.1" d="M191.026 275.153H187.204V295.121H191.026V275.153Z" fill="black"/>
<path d="M128.025 274.833H122.058V295.121H128.025V274.833Z" fill="white"/>
<path opacity="0.2" d="M128.025 274.833H122.058V295.121H128.025V274.833Z" fill="black"/>
<path d="M133.992 277.063H128.025V295.12H133.992V277.063Z" fill="white"/>
<path d="M141.449 277.063H137.237V295.12H141.449V277.063Z" fill="white"/>
<path opacity="0.9" d="M141.449 277.063H137.237V295.12H141.449V277.063Z" fill="white"/>
<path d="M137.237 275.153H133.415V295.121H137.237V275.153Z" fill="white"/>
<path opacity="0.1" d="M137.237 275.153H133.415V295.121H137.237V275.153Z" fill="black"/>
<path d="M147.416 274.833H141.449V295.121H147.416V274.833Z" fill="white"/>
<path d="M122.046 275.7L118.143 274.654L112.892 294.251L116.795 295.296L122.046 275.7Z" fill="white"/>
<path d="M153.383 277.063H147.416V295.12H153.383V277.063Z" fill="white"/>
<path opacity="0.2" d="M153.383 277.063H147.416V295.12H153.383V277.063Z" fill="#263238"/>
<path d="M156.628 275.153H152.806V295.121H156.628V275.153Z" fill="white"/>
<path opacity="0.1" d="M156.628 275.153H152.806V295.121H156.628V275.153Z" fill="black"/>
<path d="M119.118 310.455H113.151L112.332 298.911H119.937L119.118 310.455Z" fill="#263238"/>
<path d="M232.849 310.455H226.882L226.063 298.911H233.668L232.849 310.455Z" fill="#263238"/>
<path d="M239.425 241.004H106.575C105.816 241.004 105.088 241.306 104.551 241.843C104.014 242.379 103.712 243.108 103.712 243.867V298.139C103.712 298.898 104.014 299.626 104.551 300.163C105.088 300.7 105.816 301.002 106.575 301.002H239.425C240.184 301.002 240.912 300.7 241.449 300.163C241.986 299.626 242.287 298.898 242.287 298.139V243.867C242.287 243.108 241.986 242.379 241.449 241.843C240.912 241.306 240.184 241.004 239.425 241.004ZM236.554 246.737V268.959H109.414V246.737H236.554ZM109.445 295.3V273.054H236.585V295.3H109.445Z" fill="white" stroke="#263238" stroke-width="0.75" stroke-linecap="round" stroke-linejoin="round"/>
<path d="M219.784 127.007H127.861C124.906 127.007 122.51 129.403 122.51 132.358V152.092C122.51 155.047 124.906 157.443 127.861 157.443H219.784C222.739 157.443 225.135 155.047 225.135 152.092V132.358C225.135 129.403 222.739 127.007 219.784 127.007Z" fill="#263238" stroke="#263238" stroke-linecap="round" stroke-linejoin="round"/>
<path d="M218.146 125.369H126.223C123.268 125.369 120.873 127.765 120.873 130.72V150.454C120.873 153.409 123.268 155.805 126.223 155.805H218.146C221.102 155.805 223.497 153.409 223.497 150.454V130.72C223.497 127.765 221.102 125.369 218.146 125.369Z" fill="white" stroke="#263238" stroke-linecap="round" stroke-linejoin="round"/>
<path d="M218.146 125.369H126.223C123.268 125.369 120.873 127.765 120.873 130.72V150.454C120.873 153.409 123.268 155.805 126.223 155.805H218.146C221.102 155.805 223.497 153.409 223.497 150.454V130.72C223.497 127.765 221.102 125.369 218.146 125.369Z" stroke="#263238" stroke-linecap="round" stroke-linejoin="round"/>
<path d="M143.594 149.573H130.077V132.475H139.086L143.594 136.984V149.573Z" fill="white"/>
<path opacity="0.5" d="M143.594 149.573H130.077V132.475H139.086L143.594 136.984V149.573Z" fill="white"/>
<path d="M143.594 149.573H130.077V132.475H139.086L143.594 136.983V149.573Z" stroke="#263238" stroke-linecap="round" stroke-linejoin="round"/>
<path d="M139.085 136.984H143.594L139.085 132.475V136.984Z" fill="white" stroke="#263238" stroke-linecap="round" stroke-linejoin="round"/>
<path d="M133.079 141.547C132.867 141.526 132.67 141.427 132.526 141.27C132.383 141.112 132.303 140.906 132.303 140.692C132.303 140.479 132.383 140.273 132.526 140.115C132.67 139.957 132.867 139.859 133.079 139.838H140.591C140.803 139.859 141 139.957 141.144 140.115C141.288 140.273 141.367 140.479 141.367 140.692C141.367 140.906 141.288 141.112 141.144 141.27C141 141.427 140.803 141.526 140.591 141.547H133.079Z" fill="#858585" stroke="#263238" stroke-width="0.75" stroke-linecap="round" stroke-linejoin="round"/>
<path d="M133.079 145.142C132.867 145.122 132.67 145.023 132.526 144.865C132.383 144.707 132.303 144.502 132.303 144.288C132.303 144.075 132.383 143.869 132.526 143.711C132.67 143.553 132.867 143.454 133.079 143.434H138.953C139.165 143.454 139.362 143.553 139.506 143.711C139.65 143.869 139.729 144.075 139.729 144.288C139.729 144.502 139.65 144.707 139.506 144.865C139.362 145.023 139.165 145.122 138.953 145.142H133.079Z" fill="#858585" stroke="#263238" stroke-width="0.75" stroke-linecap="round" stroke-linejoin="round"/>
<path d="M177.766 142.529H152.611C152.162 142.559 151.742 142.758 151.435 143.086C151.128 143.414 150.958 143.847 150.958 144.296C150.958 144.745 151.128 145.178 151.435 145.506C151.742 145.834 152.162 146.033 152.611 146.063H177.766V142.529Z" fill="white"/>
<path d="M152.611 146.063C152.162 146.033 151.742 145.834 151.435 145.506C151.128 145.178 150.958 144.745 150.958 144.296C150.958 143.847 151.128 143.414 151.435 143.086C151.742 142.758 152.162 142.559 152.611 142.529H212.515C212.757 142.513 212.999 142.547 213.227 142.628C213.456 142.71 213.665 142.837 213.842 143.003C214.019 143.169 214.16 143.369 214.256 143.591C214.353 143.814 214.403 144.054 214.403 144.296C214.403 144.538 214.353 144.778 214.256 145.001C214.16 145.223 214.019 145.423 213.842 145.589C213.665 145.754 213.456 145.882 213.227 145.964C212.999 146.045 212.757 146.079 212.515 146.063H152.611Z" stroke="#263238" stroke-linecap="round" stroke-linejoin="round"/>
<path d="M178.335 137.74H176.439V136.843L178.241 132.576H179.325V136.843H179.793V137.74H179.325V138.887H178.335V137.74ZM178.335 136.843V134.386L177.36 136.851L178.335 136.843Z" fill="#263238"/>
<path d="M180.254 137.397V136.905H181.19V137.467C181.19 137.919 181.385 138.083 181.705 138.083C182.024 138.083 182.219 137.919 182.219 137.467V136.055C182.219 135.603 182.017 135.431 181.705 135.431C181.393 135.431 181.19 135.603 181.19 136.055V136.11H180.254L180.433 132.584H183.046V133.489H181.315L181.237 134.994C181.324 134.846 181.45 134.725 181.601 134.644C181.752 134.563 181.923 134.525 182.095 134.534C182.82 134.534 183.194 135.049 183.194 135.977V137.397C183.194 138.411 182.687 138.957 181.712 138.957C180.737 138.957 180.254 138.411 180.254 137.397Z" fill="#263238"/>
<path d="M183.826 135.08V133.52C183.814 133.387 183.83 133.254 183.873 133.127C183.915 133.001 183.984 132.885 184.073 132.787C184.163 132.688 184.273 132.61 184.395 132.556C184.517 132.502 184.649 132.474 184.782 132.474C184.915 132.474 185.047 132.502 185.169 132.556C185.291 132.61 185.4 132.688 185.49 132.787C185.58 132.885 185.648 133.001 185.691 133.127C185.734 133.254 185.749 133.387 185.737 133.52V135.08C185.749 135.213 185.734 135.347 185.691 135.473C185.648 135.599 185.58 135.715 185.49 135.814C185.4 135.912 185.291 135.991 185.169 136.044C185.047 136.098 184.915 136.126 184.782 136.126C184.649 136.126 184.517 136.098 184.395 136.044C184.273 135.991 184.163 135.912 184.073 135.814C183.984 135.715 183.915 135.599 183.873 135.473C183.83 135.347 183.814 135.213 183.826 135.08ZM185.105 135.127V133.458C185.105 133.185 184.981 133.068 184.786 133.068C184.591 133.068 184.458 133.185 184.458 133.458V135.127C184.458 135.408 184.575 135.525 184.786 135.525C184.996 135.525 185.105 135.4 185.105 135.127ZM187.071 132.584H187.703L185.261 138.894H184.63L187.071 132.584ZM186.595 137.974V136.414C186.583 136.281 186.599 136.147 186.642 136.021C186.684 135.895 186.753 135.779 186.842 135.68C186.932 135.582 187.042 135.503 187.164 135.45C187.286 135.396 187.417 135.368 187.551 135.368C187.684 135.368 187.816 135.396 187.938 135.45C188.06 135.503 188.169 135.582 188.259 135.68C188.349 135.779 188.417 135.895 188.46 136.021C188.502 136.147 188.518 136.281 188.506 136.414V137.974C188.518 138.107 188.502 138.241 188.46 138.367C188.417 138.493 188.349 138.609 188.259 138.708C188.169 138.806 188.06 138.885 187.938 138.938C187.816 138.992 187.684 139.02 187.551 139.02C187.417 139.02 187.286 138.992 187.164 138.938C187.042 138.885 186.932 138.806 186.842 138.708C186.753 138.609 186.684 138.493 186.642 138.367C186.599 138.241 186.583 138.107 186.595 137.974ZM187.874 138.021V136.352C187.874 136.071 187.75 135.954 187.547 135.954C187.344 135.954 187.227 136.071 187.227 136.352V138.021C187.227 138.302 187.344 138.419 187.547 138.419C187.75 138.419 187.874 138.302 187.874 138.021Z" fill="#263238"/>
<path d="M219.784 162.326H127.861C124.906 162.326 122.51 164.721 122.51 167.676V187.41C122.51 190.366 124.906 192.761 127.861 192.761H219.784C222.739 192.761 225.135 190.366 225.135 187.41V167.676C225.135 164.721 222.739 162.326 219.784 162.326Z" fill="#263238" stroke="#263238" stroke-linecap="round" stroke-linejoin="round"/>
<path d="M218.146 160.688H126.223C123.268 160.688 120.873 163.083 120.873 166.038V185.772C120.873 188.727 123.268 191.123 126.223 191.123H218.146C221.102 191.123 223.497 188.727 223.497 185.772V166.038C223.497 163.083 221.102 160.688 218.146 160.688Z" fill="white" stroke="#263238" stroke-linecap="round" stroke-linejoin="round"/>
<path d="M197.609 177.629H152.611C152.162 177.659 151.742 177.858 151.435 178.186C151.128 178.514 150.958 178.947 150.958 179.396C150.958 179.845 151.128 180.278 151.435 180.606C151.742 180.934 152.162 181.133 152.611 181.163H197.609V177.629Z" fill="white"/>
<path d="M152.611 181.163C152.162 181.133 151.742 180.934 151.435 180.606C151.128 180.278 150.958 179.845 150.958 179.396C150.958 178.947 151.128 178.514 151.435 178.186C151.742 177.858 152.162 177.659 152.611 177.629H212.515C212.757 177.613 212.999 177.647 213.227 177.729C213.456 177.81 213.665 177.938 213.842 178.103C214.019 178.269 214.16 178.469 214.256 178.691C214.353 178.914 214.403 179.154 214.403 179.396C214.403 179.638 214.353 179.878 214.256 180.101C214.16 180.323 214.019 180.523 213.842 180.689C213.665 180.855 213.456 180.982 213.227 181.064C212.999 181.145 212.757 181.179 212.515 181.163H152.611Z" stroke="#263238" stroke-linecap="round" stroke-linejoin="round"/>
<path d="M176.557 172.528V171.967C176.526 171.712 176.571 171.454 176.686 171.225C176.801 170.996 176.981 170.807 177.204 170.68C176.992 170.556 176.821 170.372 176.713 170.151C176.604 169.931 176.564 169.683 176.596 169.439V169.182C176.596 168.781 176.755 168.396 177.039 168.112C177.323 167.828 177.707 167.669 178.109 167.669C178.51 167.669 178.895 167.828 179.179 168.112C179.463 168.396 179.622 168.781 179.622 169.182V169.439C179.65 169.683 179.607 169.931 179.498 170.151C179.388 170.371 179.217 170.554 179.006 170.68C179.23 170.805 179.412 170.995 179.528 171.224C179.645 171.453 179.691 171.711 179.661 171.967V172.528C179.661 172.942 179.497 173.339 179.204 173.631C178.912 173.924 178.515 174.088 178.101 174.088C177.687 174.088 177.29 173.924 176.998 173.631C176.705 173.339 176.541 172.942 176.541 172.528H176.557ZM178.67 172.473V171.865C178.67 171.389 178.475 171.155 178.109 171.155C177.742 171.155 177.547 171.389 177.547 171.865V172.473C177.547 172.949 177.742 173.183 178.109 173.183C178.475 173.183 178.67 172.949 178.67 172.473ZM178.67 169.627V169.127C178.67 168.714 178.491 168.495 178.148 168.495C177.805 168.495 177.625 168.714 177.625 169.127V169.627C177.625 170.04 177.805 170.258 178.148 170.258C178.491 170.258 178.631 170.04 178.631 169.627H178.67Z" fill="#263238"/>
<path d="M180.254 172.497V172.006H181.19V172.567C181.19 173.02 181.385 173.183 181.705 173.183C182.024 173.183 182.219 173.02 182.219 172.567V171.155C182.219 170.703 182.017 170.531 181.705 170.531C181.393 170.531 181.19 170.703 181.19 171.155V171.21H180.254L180.433 167.684H183.046V168.589H181.315L181.237 170.095C181.324 169.946 181.45 169.825 181.601 169.744C181.752 169.663 181.923 169.625 182.095 169.634C182.82 169.634 183.194 170.149 183.194 171.077V172.497C183.209 172.7 183.182 172.904 183.114 173.096C183.047 173.288 182.94 173.464 182.802 173.614C182.663 173.763 182.495 173.882 182.308 173.963C182.122 174.044 181.92 174.086 181.716 174.086C181.513 174.086 181.311 174.044 181.124 173.963C180.938 173.882 180.77 173.763 180.631 173.614C180.492 173.464 180.386 173.288 180.318 173.096C180.251 172.904 180.224 172.7 180.238 172.497H180.254Z" fill="#263238"/>
<path d="M183.826 170.18V168.62C183.814 168.488 183.83 168.354 183.873 168.227C183.915 168.101 183.984 167.985 184.073 167.887C184.163 167.788 184.273 167.71 184.395 167.656C184.517 167.602 184.649 167.574 184.782 167.574C184.915 167.574 185.047 167.602 185.169 167.656C185.291 167.71 185.4 167.788 185.49 167.887C185.58 167.985 185.648 168.101 185.691 168.227C185.734 168.354 185.749 168.488 185.737 168.62V170.18C185.749 170.313 185.734 170.447 185.691 170.573C185.648 170.699 185.58 170.815 185.49 170.914C185.4 171.012 185.291 171.091 185.169 171.145C185.047 171.198 184.915 171.226 184.782 171.226C184.649 171.226 184.517 171.198 184.395 171.145C184.273 171.091 184.163 171.012 184.073 170.914C183.984 170.815 183.915 170.699 183.873 170.573C183.83 170.447 183.814 170.313 183.826 170.18ZM185.105 170.227V168.558C185.105 168.285 184.981 168.16 184.786 168.16C184.591 168.16 184.458 168.285 184.458 168.558V170.227C184.458 170.508 184.575 170.625 184.786 170.625C184.996 170.625 185.105 170.5 185.105 170.227ZM187.071 167.684H187.703L185.261 173.994H184.63L187.071 167.684ZM186.595 173.074V171.514C186.583 171.381 186.599 171.248 186.642 171.121C186.684 170.995 186.753 170.879 186.842 170.781C186.932 170.682 187.042 170.604 187.164 170.55C187.286 170.496 187.417 170.468 187.551 170.468C187.684 170.468 187.816 170.496 187.938 170.55C188.06 170.604 188.169 170.682 188.259 170.781C188.349 170.879 188.417 170.995 188.46 171.121C188.502 171.248 188.518 171.381 188.506 171.514V173.074C188.518 173.207 188.502 173.341 188.46 173.467C188.417 173.593 188.349 173.709 188.259 173.808C188.169 173.906 188.06 173.985 187.938 174.038C187.816 174.092 187.684 174.12 187.551 174.12C187.417 174.12 187.286 174.092 187.164 174.038C187.042 173.985 186.932 173.906 186.842 173.808C186.753 173.709 186.684 173.593 186.642 173.467C186.599 173.341 186.583 173.207 186.595 173.074ZM187.874 173.121V171.452C187.874 171.171 187.75 171.054 187.547 171.054C187.344 171.054 187.227 171.171 187.227 171.452V173.121C187.227 173.402 187.344 173.519 187.547 173.519C187.75 173.519 187.874 173.402 187.874 173.121Z" fill="#263238"/>
<path d="M143.594 184.673H130.077V167.575H139.086L143.594 172.084V184.673Z" fill="white"/>
<path opacity="0.5" d="M143.594 184.673H130.077V167.575H139.086L143.594 172.084V184.673Z" fill="white" stroke="#263238" stroke-linecap="round" stroke-linejoin="round"/>
<path d="M143.594 184.673H130.077V167.575H139.086L143.594 172.084V184.673Z" stroke="#263238" stroke-linecap="round" stroke-linejoin="round"/>
<path d="M133.079 176.646C132.867 176.626 132.67 176.527 132.526 176.369C132.383 176.211 132.303 176.006 132.303 175.792C132.303 175.579 132.383 175.373 132.526 175.215C132.67 175.057 132.867 174.959 133.079 174.938H140.591C140.803 174.959 141 175.057 141.144 175.215C141.288 175.373 141.367 175.579 141.367 175.792C141.367 176.006 141.288 176.211 141.144 176.369C141 176.527 140.803 176.626 140.591 176.646H133.079Z" fill="#858585" stroke="#263238" stroke-width="0.75" stroke-linecap="round" stroke-linejoin="round"/>
<path d="M133.079 180.242C132.867 180.222 132.67 180.123 132.526 179.965C132.383 179.807 132.303 179.602 132.303 179.388C132.303 179.175 132.383 178.969 132.526 178.811C132.67 178.653 132.867 178.555 133.079 178.534H138.953C139.165 178.555 139.362 178.653 139.506 178.811C139.65 178.969 139.729 179.175 139.729 179.388C139.729 179.602 139.65 179.807 139.506 179.965C139.362 180.123 139.165 180.222 138.953 180.242H133.079Z" fill="#858585" stroke="#263238" stroke-width="0.75" stroke-linecap="round" stroke-linejoin="round"/>
<path d="M139.085 172.084H143.594L139.085 167.575V172.084Z" fill="white" stroke="#263238" stroke-linecap="round" stroke-linejoin="round"/>
<path d="M232.35 79.8486H115.288C112.333 79.8486 109.937 82.2443 109.937 85.1994V112.398C109.937 115.353 112.333 117.749 115.288 117.749H232.35C235.305 117.749 237.701 115.353 237.701 112.398V85.1994C237.701 82.2443 235.305 79.8486 232.35 79.8486Z" fill="#263238" stroke="#263238" stroke-linecap="round" stroke-linejoin="round"/>
<path d="M230.712 78.2104H113.65C110.694 78.2104 108.299 80.6061 108.299 83.5613V110.76C108.299 113.715 110.694 116.111 113.65 116.111H230.712C233.667 116.111 236.063 113.715 236.063 110.76V83.5613C236.063 80.6061 233.667 78.2104 230.712 78.2104Z" fill="white" stroke="#263238" stroke-linecap="round" stroke-linejoin="round"/>
<path d="M152.891 112.991H127.861V81.3306H144.545L152.891 89.6688V112.991Z" fill="white"/>
<path opacity="0.7" d="M152.891 112.991H127.861V81.3306H144.545L152.891 89.6688V112.991Z" fill="white"/>
<path d="M152.891 112.991H127.861V81.3306H144.545L152.891 89.6688V112.991Z" stroke="#263238" stroke-linecap="round" stroke-linejoin="round"/>
<path d="M144.545 89.6688H152.891L144.545 81.3306V89.6688Z" fill="white" stroke="#263238" stroke-linecap="round" stroke-linejoin="round"/>
<path d="M135.248 93.5686H130.334V98.4826H135.248V93.5686Z" stroke="white" stroke-width="0.75" stroke-linecap="round" stroke-linejoin="round"/>
<path d="M140.302 93.5686H135.388V98.4826H140.302V93.5686Z" stroke="white" stroke-width="0.75" stroke-linecap="round" stroke-linejoin="round"/>
<path d="M145.364 93.5686H140.45V98.4826H145.364V93.5686Z" stroke="white" stroke-width="0.75" stroke-linecap="round" stroke-linejoin="round"/>
<path d="M150.419 93.5686H145.505V98.4826H150.419V93.5686Z" stroke="white" stroke-width="0.75" stroke-linecap="round" stroke-linejoin="round"/>
<path d="M135.248 98.4827H130.334V103.397H135.248V98.4827Z" stroke="white" stroke-width="0.75" stroke-linecap="round" stroke-linejoin="round"/>
<path d="M140.302 98.4827H135.388V103.397H140.302V98.4827Z" stroke="white" stroke-width="0.75" stroke-linecap="round" stroke-linejoin="round"/>
<path d="M145.364 98.4827H140.45V103.397H145.364V98.4827Z" stroke="white" stroke-width="0.75" stroke-linecap="round" stroke-linejoin="round"/>
<path d="M150.419 98.4827H145.505V103.397H150.419V98.4827Z" stroke="white" stroke-width="0.75" stroke-linecap="round" stroke-linejoin="round"/>
<path d="M135.248 103.397H130.334V108.311H135.248V103.397Z" stroke="white" stroke-width="0.75" stroke-linecap="round" stroke-linejoin="round"/>
<path d="M140.302 103.397H135.388V108.311H140.302V103.397Z" stroke="white" stroke-width="0.75" stroke-linecap="round" stroke-linejoin="round"/>
<path d="M145.364 103.397H140.45V108.311H145.364V103.397Z" stroke="white" stroke-width="0.75" stroke-linecap="round" stroke-linejoin="round"/>
<path d="M150.419 103.397H145.505V108.311H150.419V103.397Z" stroke="white" stroke-width="0.75" stroke-linecap="round" stroke-linejoin="round"/>
<path d="M130.427 107.835L135.388 103.28L137.845 103.397L140.528 98.5528L142.907 100.94L145.575 98.1394L147.962 93.5686" stroke="white" stroke-width="2" stroke-linecap="round" stroke-linejoin="round"/>
<path d="M145.146 94.996L147.962 93.5686L148.531 96.6418" stroke="white" stroke-width="2" stroke-linecap="round" stroke-linejoin="round"/>
<path d="M162.735 96.1505H161.3V95.1989C162.439 95.1989 162.86 94.9493 163.156 94.1147H164.061V102.695H162.712L162.735 96.1505Z" fill="#263238"/>
<path d="M165.66 100.675V96.1505C165.66 95.6064 165.876 95.0847 166.261 94.7C166.646 94.3153 167.168 94.0991 167.712 94.0991C168.256 94.0991 168.777 94.3153 169.162 94.7C169.547 95.0847 169.763 95.6064 169.763 96.1505V100.675C169.763 101.219 169.547 101.74 169.162 102.125C168.777 102.51 168.256 102.726 167.712 102.726C167.168 102.726 166.646 102.51 166.261 102.125C165.876 101.74 165.66 101.219 165.66 100.675ZM168.414 100.76V96.0803C168.414 95.4719 168.141 95.2379 167.712 95.2379C167.283 95.2379 167.01 95.4719 167.01 96.0803V100.76C167.01 101.377 167.283 101.611 167.712 101.611C168.141 101.611 168.414 101.377 168.414 100.76Z" fill="#263238"/>
<path d="M170.574 100.675V96.1505C170.574 95.6064 170.79 95.0847 171.175 94.7C171.56 94.3153 172.082 94.0991 172.626 94.0991C173.17 94.0991 173.691 94.3153 174.076 94.7C174.461 95.0847 174.677 95.6064 174.677 96.1505V100.675C174.677 101.219 174.461 101.74 174.076 102.125C173.691 102.51 173.17 102.726 172.626 102.726C172.082 102.726 171.56 102.51 171.175 102.125C170.79 101.74 170.574 101.219 170.574 100.675ZM173.328 100.76V96.0803C173.328 95.4719 173.055 95.2379 172.626 95.2379C172.197 95.2379 171.924 95.4719 171.924 96.0803V100.76C171.924 101.377 172.197 101.611 172.626 101.611C173.055 101.611 173.328 101.377 173.328 100.76Z" fill="#263238"/>
<path d="M175.511 97.5155V95.3705C175.511 95.025 175.648 94.6937 175.893 94.4494C176.137 94.2051 176.468 94.0679 176.814 94.0679C177.159 94.0679 177.491 94.2051 177.735 94.4494C177.979 94.6937 178.116 95.025 178.116 95.3705V97.5155C178.116 97.8609 177.979 98.1923 177.735 98.4366C177.491 98.6808 177.159 98.8181 176.814 98.8181C176.468 98.8181 176.137 98.6808 175.893 98.4366C175.648 98.1923 175.511 97.8609 175.511 97.5155ZM177.258 97.5779V95.3081C177.258 94.9259 177.087 94.7621 176.814 94.7621C176.541 94.7621 176.369 94.9259 176.369 95.3081V97.5779C176.369 97.9601 176.533 98.1161 176.814 98.1161C177.095 98.1161 177.258 97.9601 177.258 97.5779ZM179.934 94.1147H180.8L177.469 102.695H176.611L179.934 94.1147ZM179.279 101.462V99.3095C179.279 99.1384 179.312 98.969 179.378 98.811C179.443 98.6529 179.539 98.5094 179.66 98.3884C179.781 98.2674 179.925 98.1715 180.083 98.106C180.241 98.0406 180.41 98.0069 180.581 98.0069C180.752 98.0069 180.922 98.0406 181.08 98.106C181.238 98.1715 181.381 98.2674 181.502 98.3884C181.623 98.5094 181.719 98.6529 181.785 98.811C181.85 98.969 181.884 99.1384 181.884 99.3095V101.462C181.884 101.633 181.85 101.803 181.785 101.961C181.719 102.119 181.623 102.262 181.502 102.383C181.381 102.504 181.238 102.6 181.08 102.666C180.922 102.731 180.752 102.765 180.581 102.765C180.41 102.765 180.241 102.731 180.083 102.666C179.925 102.6 179.781 102.504 179.66 102.383C179.539 102.262 179.443 102.119 179.378 101.961C179.312 101.803 179.279 101.633 179.279 101.462ZM181.026 101.525V99.2471C181.026 98.8649 180.854 98.7089 180.581 98.7089C180.308 98.7089 180.144 98.8649 180.144 99.2471V101.525C180.144 101.899 180.3 102.063 180.581 102.063C180.862 102.063 181.026 101.899 181.026 101.525Z" fill="#263238"/>
<path d="M184.068 100.027V96.6339C184.068 96.2471 184.222 95.8761 184.495 95.6025C184.769 95.329 185.14 95.1753 185.526 95.1753C185.913 95.1753 186.284 95.329 186.558 95.6025C186.831 95.8761 186.985 96.2471 186.985 96.6339V97.3047H186.049V96.5715C186.049 96.1581 185.846 95.9865 185.55 95.9865C185.253 95.9865 185.058 96.1581 185.058 96.5715V100.097C185.058 100.511 185.253 100.674 185.55 100.674C185.846 100.674 186.049 100.511 186.049 100.097V99.1299H186.985V100.027C186.985 100.414 186.831 100.785 186.558 101.058C186.284 101.332 185.913 101.486 185.526 101.486C185.14 101.486 184.769 101.332 184.495 101.058C184.222 100.785 184.068 100.414 184.068 100.027Z" fill="#263238"/>
<path d="M187.523 99.9881V96.6731C187.523 96.2739 187.682 95.891 187.964 95.6087C188.247 95.3263 188.63 95.1677 189.029 95.1677C189.428 95.1677 189.811 95.3263 190.093 95.6087C190.376 95.891 190.534 96.2739 190.534 96.6731V99.9881C190.534 100.387 190.376 100.77 190.093 101.053C189.811 101.335 189.428 101.494 189.029 101.494C188.63 101.494 188.247 101.335 187.964 101.053C187.682 100.77 187.523 100.387 187.523 99.9881ZM189.544 100.051V96.6107C189.544 96.1583 189.349 95.9867 189.029 95.9867C188.709 95.9867 188.514 96.1583 188.514 96.6107V100.051C188.514 100.503 188.717 100.675 189.029 100.675C189.341 100.675 189.544 100.503 189.544 100.051Z" fill="#263238"/>
<path d="M191.197 95.1755H192.617L193.249 99.6917L193.88 95.1755H195.292V101.486H194.356V96.7121L193.631 101.486H192.804L192.086 96.7121V101.486H191.221L191.197 95.1755Z" fill="#263238"/>
<path d="M196.049 95.1755H197.507C198.498 95.1755 198.982 95.7293 198.982 96.7355V97.3595C198.982 98.3657 198.498 98.9195 197.507 98.9195H197.039V101.486H196.049V95.1755ZM197.507 98.0147C197.819 98.0147 197.991 97.8743 197.991 97.4219V96.6419C197.991 96.1895 197.819 96.0491 197.507 96.0491H197.039V97.9835L197.507 98.0147Z" fill="#263238"/>
<path d="M199.52 95.1753H200.511V100.581H202.141V101.486H199.52V95.1753Z" fill="#263238"/>
<path d="M202.64 95.1753H205.338V96.0801H203.63V97.7415H204.98V98.6463H203.622V100.581H205.331V101.486H202.64V95.1753Z" fill="#263238"/>
<path d="M206.665 96.0801H205.635V95.1753H208.693V96.0801H207.655V101.486H206.665V96.0801Z" fill="#263238"/>
<path d="M209.176 95.1755H211.875V96.0803H210.167V97.7417H211.524V98.6465H210.167V100.581H211.875V101.486H209.176V95.1755Z" fill="#263238"/>
<path d="M212.444 95.1753H213.958C214.948 95.1753 215.432 95.7291 215.432 96.7353V99.9255C215.432 100.932 214.948 101.486 213.958 101.486H212.444V95.1753ZM213.934 100.581C214.254 100.581 214.441 100.417 214.441 99.9723V96.6885C214.441 96.2439 214.254 96.0801 213.934 96.0801H213.435V100.581H213.934Z" fill="#263238"/>
<path d="M219.784 197.652H127.861C124.906 197.652 122.51 200.048 122.51 203.003V222.737C122.51 225.692 124.906 228.087 127.861 228.087H219.784C222.739 228.087 225.135 225.692 225.135 222.737V203.003C225.135 200.048 222.739 197.652 219.784 197.652Z" fill="#263238" stroke="#263238" stroke-linecap="round" stroke-linejoin="round"/>
<path d="M218.146 196.014H126.223C123.268 196.014 120.873 198.41 120.873 201.365V221.099C120.873 224.054 123.268 226.45 126.223 226.45H218.146C221.102 226.45 223.497 224.054 223.497 221.099V201.365C223.497 198.41 221.102 196.014 218.146 196.014Z" fill="white" stroke="#263238" stroke-linecap="round" stroke-linejoin="round"/>
<path d="M194.434 212.737H152.61C152.143 212.737 151.695 212.923 151.364 213.253C151.033 213.584 150.848 214.032 150.848 214.5C150.848 214.967 151.033 215.416 151.364 215.746C151.695 216.077 152.143 216.263 152.61 216.263H194.434V212.737Z" fill="white"/>
<path d="M152.61 216.263C152.143 216.263 151.695 216.077 151.364 215.746C151.033 215.416 150.848 214.967 150.848 214.5C150.848 214.032 151.033 213.584 151.364 213.253C151.695 212.923 152.143 212.737 152.61 212.737H212.514C212.746 212.737 212.975 212.783 213.189 212.871C213.403 212.96 213.597 213.09 213.761 213.253C213.925 213.417 214.054 213.611 214.143 213.825C214.232 214.039 214.277 214.268 214.277 214.5C214.277 214.731 214.232 214.961 214.143 215.174C214.054 215.388 213.925 215.583 213.761 215.746C213.597 215.91 213.403 216.04 213.189 216.128C212.975 216.217 212.746 216.263 212.514 216.263H152.61Z" stroke="#263238" stroke-linecap="round" stroke-linejoin="round"/>
<path d="M143.594 219.78H130.077V202.683H139.086L143.594 207.183V219.78Z" fill="white"/>
<path opacity="0.5" d="M143.594 219.78H130.077V202.683H139.086L143.594 207.183V219.78Z" fill="white"/>
<path d="M143.594 219.78H130.077V202.683H139.086L143.594 207.183V219.78Z" stroke="#263238" stroke-linecap="round" stroke-linejoin="round"/>
<path d="M133.079 211.754C132.867 211.734 132.67 211.635 132.526 211.477C132.383 211.319 132.303 211.114 132.303 210.9C132.303 210.687 132.383 210.481 132.526 210.323C132.67 210.165 132.867 210.066 133.079 210.046H140.591C140.803 210.066 141 210.165 141.144 210.323C141.288 210.481 141.367 210.687 141.367 210.9C141.367 211.114 141.288 211.319 141.144 211.477C141 211.635 140.803 211.734 140.591 211.754H133.079Z" fill="#858585" stroke="#263238" stroke-width="0.75" stroke-linecap="round" stroke-linejoin="round"/>
<path d="M133.079 215.342C132.854 215.342 132.637 215.253 132.478 215.093C132.319 214.934 132.229 214.718 132.229 214.492C132.229 214.267 132.319 214.05 132.478 213.891C132.637 213.731 132.854 213.642 133.079 213.642H138.953C139.178 213.642 139.394 213.731 139.554 213.891C139.713 214.05 139.803 214.267 139.803 214.492C139.803 214.718 139.713 214.934 139.554 215.093C139.394 215.253 139.178 215.342 138.953 215.342H133.079Z" fill="#858585" stroke="#263238" stroke-width="0.75" stroke-linecap="round" stroke-linejoin="round"/>
<path d="M139.085 207.183H143.594L139.085 202.683V207.183Z" fill="white" stroke="#263238" stroke-linecap="round" stroke-linejoin="round"/>
<path d="M178.616 203.689H176.611V202.792H179.583V203.658L178.023 209.118H177.009L178.616 203.689Z" fill="#263238"/>
<path d="M180.207 207.605V204.29C180.207 203.89 180.366 203.507 180.648 203.225C180.93 202.943 181.313 202.784 181.712 202.784C182.112 202.784 182.495 202.943 182.777 203.225C183.059 203.507 183.218 203.89 183.218 204.29V207.605C183.218 208.004 183.059 208.387 182.777 208.669C182.495 208.951 182.112 209.11 181.712 209.11C181.313 209.11 180.93 208.951 180.648 208.669C180.366 208.387 180.207 208.004 180.207 207.605ZM182.227 207.667V204.227C182.227 203.775 182.024 203.603 181.712 203.603C181.4 203.603 181.198 203.775 181.198 204.227V207.667C181.198 208.119 181.4 208.283 181.712 208.283C182.024 208.283 182.227 208.119 182.227 207.667Z" fill="#263238"/>
<path d="M183.826 205.288V203.728C183.814 203.595 183.83 203.461 183.873 203.335C183.915 203.209 183.984 203.093 184.073 202.994C184.163 202.896 184.273 202.817 184.395 202.764C184.517 202.71 184.649 202.682 184.782 202.682C184.915 202.682 185.047 202.71 185.169 202.764C185.291 202.817 185.4 202.896 185.49 202.994C185.58 203.093 185.648 203.209 185.691 203.335C185.734 203.461 185.749 203.595 185.737 203.728V205.288C185.749 205.421 185.734 205.554 185.691 205.681C185.648 205.807 185.58 205.923 185.49 206.021C185.4 206.12 185.291 206.198 185.169 206.252C185.047 206.306 184.915 206.334 184.782 206.334C184.649 206.334 184.517 206.306 184.395 206.252C184.273 206.198 184.163 206.12 184.073 206.021C183.984 205.923 183.915 205.807 183.873 205.681C183.83 205.554 183.814 205.421 183.826 205.288ZM185.105 205.335V203.666C185.105 203.385 184.981 203.268 184.786 203.268C184.591 203.268 184.458 203.385 184.458 203.666V205.335C184.458 205.608 184.575 205.725 184.786 205.725C184.996 205.725 185.105 205.6 185.105 205.335ZM187.04 202.792H187.672L185.23 209.094H184.598L187.04 202.792ZM186.564 208.182V206.622C186.552 206.489 186.568 206.355 186.61 206.229C186.653 206.103 186.721 205.987 186.811 205.888C186.901 205.79 187.011 205.711 187.133 205.657C187.254 205.604 187.386 205.576 187.52 205.576C187.653 205.576 187.785 205.604 187.907 205.657C188.029 205.711 188.138 205.79 188.228 205.888C188.318 205.987 188.386 206.103 188.429 206.229C188.471 206.355 188.487 206.489 188.475 206.622V208.182C188.487 208.314 188.471 208.448 188.429 208.575C188.386 208.701 188.318 208.817 188.228 208.915C188.138 209.014 188.029 209.092 187.907 209.146C187.785 209.2 187.653 209.228 187.52 209.228C187.386 209.228 187.254 209.2 187.133 209.146C187.011 209.092 186.901 209.014 186.811 208.915C186.721 208.817 186.653 208.701 186.61 208.575C186.568 208.448 186.552 208.314 186.564 208.182ZM187.843 208.221V206.559C187.843 206.279 187.718 206.162 187.516 206.162C187.313 206.162 187.196 206.279 187.196 206.559V208.221C187.196 208.502 187.313 208.619 187.516 208.619C187.718 208.619 187.874 208.502 187.874 208.221H187.843Z" fill="#263238"/>
<path d="M70.3832 41.9559L90.9674 26.0439L111.552 41.9559H70.3832Z" fill="#263238" stroke="#263238" stroke-linecap="round" stroke-linejoin="round"/>
<path d="M96.3493 24.7961H85.5853V34.0001H96.3493V24.7961Z" fill="#263238" stroke="#263238" stroke-linecap="round" stroke-linejoin="round"/>
<path d="M90.9672 1.92651V34.0001" stroke="#263238" stroke-width="0.75" stroke-linecap="round" stroke-linejoin="round"/>
<path d="M234.44 41.9559L255.032 26.0439L275.617 41.9559H234.44Z" fill="#263238" stroke="#263238" stroke-linecap="round" stroke-linejoin="round"/>
<path d="M260.415 24.7959H249.651V33.9999H260.415V24.7959Z" fill="#263238" stroke="#263238" stroke-linecap="round" stroke-linejoin="round"/>
<path d="M255.033 0.366455V34.0001" stroke="#263238" stroke-width="0.75" stroke-linecap="round" stroke-linejoin="round"/>
<path d="M263.067 290.3L262.63 303.17L269.291 303.49L271.717 290.3H263.067Z" fill="white" stroke="#263238" stroke-linecap="round" stroke-linejoin="round"/>
<path d="M250.033 307.117C252.279 306.337 256.163 305.011 257.622 304.099C258.792 303.365 260.422 300.979 261.631 300.308C261.885 300.198 262.158 300.141 262.435 300.141C262.711 300.141 262.984 300.198 263.238 300.308C263.434 300.526 263.562 300.797 263.605 301.088C263.638 301.214 263.708 301.327 263.805 301.413C263.903 301.5 264.023 301.556 264.152 301.574C264.281 301.592 264.413 301.572 264.53 301.516C264.648 301.46 264.747 301.371 264.814 301.259C265 300.893 265.267 300.573 265.594 300.323C266.623 299.746 269.408 299.582 270.32 300.323C271.834 301.564 272.38 305.838 272.66 307.765C272.731 308.186 272.66 310.526 272.66 310.526H248.356V309.457C248.352 308.94 248.513 308.435 248.814 308.015C249.115 307.594 249.542 307.28 250.033 307.117Z" fill="white" stroke="#263238" stroke-linecap="round" stroke-linejoin="round"/>
<path d="M272.676 310.51H248.356V309.442C248.355 309.176 248.4 308.912 248.488 308.662H272.707C272.707 309.481 272.676 310.51 272.676 310.51Z" fill="#858585" stroke="#263238" stroke-linecap="round" stroke-linejoin="round"/>
<path d="M267.271 190.523L262.162 295.199L271.522 296.759C271.522 296.759 277.419 266.463 278.136 256.542C278.308 254.202 278.136 247.143 278.136 247.143L284.758 214.547C284.758 214.547 289.119 210.522 289.626 191.357L267.271 190.523Z" fill="#263238" stroke="#263238" stroke-linecap="round" stroke-linejoin="round"/>
<path opacity="0.7" d="M281.124 231.036C281.482 229.523 281.904 228.033 282.411 226.551C282.489 226.34 282.582 226.145 282.676 225.95C282.908 223.735 283.265 221.535 283.744 219.359C283.91 218.547 284.347 217.815 284.985 217.285C285.167 216.873 285.438 216.508 285.78 216.215C286.121 215.922 286.524 215.709 286.958 215.592C286.671 213.578 286.233 211.589 285.648 209.641C285.055 207.597 284.088 205.639 283.799 203.525C283.721 202.979 283.409 202.41 283.51 202.348C282.84 202.086 282.184 201.789 281.545 201.458L281.428 201.365C280.83 211.244 280.728 221.147 281.124 231.036Z" fill="black"/>
<path d="M266.826 250.396C268.483 250.012 270.004 249.184 271.225 248.001" stroke="#7F7F7F" stroke-width="0.75" stroke-linecap="round" stroke-linejoin="round"/>
<path d="M260.929 297.188L272.247 298.116L273.09 294.45L260.929 293.498V297.188Z" fill="white" stroke="#263238" stroke-linecap="round" stroke-linejoin="round"/>
<path d="M293.611 288.717L296.022 303.763L302.184 303.279L301.981 287.875L293.611 288.717Z" fill="white" stroke="#263238" stroke-linecap="round" stroke-linejoin="round"/>
<path d="M283.292 307.117C285.546 306.337 289.43 305.011 290.881 304.099C292.051 303.365 293.689 300.979 294.89 300.308C295.145 300.198 295.42 300.141 295.698 300.141C295.975 300.141 296.25 300.198 296.505 300.308C296.646 300.453 296.746 300.634 296.794 300.83C296.836 300.98 296.921 301.113 297.039 301.213C297.157 301.314 297.302 301.377 297.456 301.395C297.61 301.412 297.766 301.383 297.904 301.312C298.041 301.241 298.154 301.13 298.229 300.994C298.388 300.725 298.6 300.491 298.853 300.308C299.882 299.731 302.667 299.567 303.58 300.308C305.093 301.548 305.639 305.822 305.92 307.749C305.982 308.17 305.92 310.51 305.92 310.51H281.623V309.442C281.622 308.928 281.783 308.427 282.082 308.01C282.382 307.593 282.805 307.281 283.292 307.117Z" fill="white" stroke="#263238" stroke-linecap="round" stroke-linejoin="round"/>
<path d="M305.943 310.51H281.623V309.441C281.62 309.176 281.662 308.912 281.748 308.661H305.967C305.967 309.48 305.943 310.51 305.943 310.51Z" fill="#858585" stroke="#263238" stroke-linecap="round" stroke-linejoin="round"/>
<path d="M280.297 193.682C280.297 193.682 282.637 207.23 284.79 218.595C286.256 226.301 286.35 249.07 286.35 249.07L293.822 296.08L303.034 294.84C303.034 294.84 303.143 265.902 302.106 256.62C301.872 254.553 301.49 248.414 301.49 248.414C301.49 248.414 301.841 223.86 303.736 215.654C305.093 209.804 307.792 203.658 304.516 191.669L280.297 193.682Z" fill="#263238" stroke="#263238" stroke-linecap="round" stroke-linejoin="round"/>
<path d="M288.37 250.396C289.307 251.692 290.701 252.587 292.27 252.899" stroke="#7F7F7F" stroke-width="0.75" stroke-linecap="round" stroke-linejoin="round"/>
<path d="M292.277 293.966L292.808 297.414L304.227 296.189L304.149 292.477L292.277 293.966Z" fill="white" stroke="#263238" stroke-linecap="round" stroke-linejoin="round"/>
<path d="M236.827 131.009L234.308 126.773C234.308 126.773 233.7 119.855 232.296 118.505C230.892 117.156 227.772 113.186 227.327 113.966C226.625 115.214 229.222 117.437 229.222 117.437L229.698 120.011C229.698 120.011 225.494 116.984 224.308 116.984C224.308 116.984 220.954 113.014 219.769 113.006C218.583 112.999 220.252 115.752 220.252 115.752C220.252 115.752 219.121 114.886 218.903 115.424C218.685 115.963 220.362 117.803 220.362 117.803C220.362 117.803 219.714 118.505 220.689 120.011C220.554 120.497 220.556 121.011 220.693 121.497C220.831 121.982 221.099 122.421 221.469 122.764C222.764 123.794 229.722 127.733 229.722 127.733L232.062 133.24L236.827 131.009Z" fill="#858585" stroke="#263238" stroke-linecap="round" stroke-linejoin="round"/>
<path d="M221.282 117.913C221.282 117.913 222.202 118.287 221.82 119.636C222.187 120.158 222.394 120.777 222.413 121.415C222.506 122.6 228.512 122.015 230.135 124.535" stroke="#263238" stroke-width="0.75" stroke-linecap="round" stroke-linejoin="round"/>
<path d="M221.282 116.454L223.731 119.043" stroke="#263238" stroke-width="0.75" stroke-linecap="round" stroke-linejoin="round"/>
<path d="M262.833 129.94L246.757 142.467L235.743 127.46L230.135 130.268C230.135 130.268 238.949 154.619 245.618 154.619C252.708 154.619 266.186 143.231 266.186 143.231C266.186 143.231 267.037 141.055 262.833 129.94Z" fill="white" stroke="#263238" stroke-linecap="round" stroke-linejoin="round"/>
<path d="M247.365 143.66C247.741 144.459 248.021 145.299 248.2 146.164" stroke="#263238" stroke-width="0.75" stroke-linecap="round" stroke-linejoin="round"/>
<path d="M262.833 129.94L266.257 175.266V194.095C266.257 194.095 285.983 196.435 305.444 193.596L304.773 174.213L306.747 131.009C306.747 131.009 297.714 124.48 283.846 124.48C269.977 124.48 262.833 129.94 262.833 129.94Z" fill="white" stroke="#263238" stroke-linecap="round" stroke-linejoin="round"/>
<path opacity="0.2" d="M305.444 193.596L304.82 176.225C304.485 184.595 295.249 181.451 293.159 181.061C290.92 180.64 288.346 188.019 288.346 188.019C288.346 188.019 279.766 189.493 273.051 188.971C266.335 188.448 266.233 182.317 266.233 182.317V194.095C266.233 194.095 285.983 196.466 305.444 193.596Z" fill="black"/>
<path d="M275.5 174.829C283.772 173.939 291.71 171.08 298.65 166.491L275.5 174.829Z" fill="white"/>
<path d="M275.5 174.829C283.772 173.939 291.71 171.08 298.65 166.491" stroke="#263238" stroke-width="0.75" stroke-linecap="round" stroke-linejoin="round"/>
<path d="M272.06 175.063C272.06 175.063 272.723 175.063 273.893 174.977L272.06 175.063Z" fill="white"/>
<path d="M272.06 175.063C272.06 175.063 272.723 175.063 273.893 174.977" stroke="#263238" stroke-width="0.75" stroke-linecap="round" stroke-linejoin="round"/>
<path d="M278.737 132.124L275.321 130.884L272.06 134.035L274.447 124.285L277.325 122.023L278.792 122.951L285.344 122.702L290.437 123.115L292.863 122.366L295.452 124.956L289.688 135.977L287.27 131.804L281.935 132.467L278.737 132.124Z" fill="white"/>
<path opacity="0.5" d="M278.737 132.124L275.321 130.884L272.06 134.035L274.447 124.285L277.325 122.023L278.792 122.951L285.344 122.702L290.437 123.115L292.863 122.366L295.452 124.956L289.688 135.977L287.27 131.804L281.935 132.467L278.737 132.124Z" fill="white"/>
<path d="M278.737 132.124L275.321 130.884L272.06 134.035L274.447 124.285L277.325 122.023L278.792 122.951L285.344 122.702L290.437 123.115L292.863 122.366L295.452 124.956L289.688 135.977L287.27 131.804L281.935 132.467L278.737 132.124Z" stroke="#263238" stroke-linecap="round" stroke-linejoin="round"/>
<path d="M290.086 124.925L289.306 113.006L281.771 114.34L280.211 119.941L278.651 124.792L277.91 124.87L279.962 136.009L290.835 125.089L290.086 124.925Z" fill="#858585"/>
<path d="M271.561 113.833C271.561 116.859 272.029 123.63 276.186 124.418C280.492 125.237 285.429 120.338 287.2 118.38C287.643 117.894 287.99 117.327 288.221 116.711L289.165 114.207C289.782 114.255 290.399 114.125 290.944 113.833H271.561Z" fill="#263238" stroke="#263238" stroke-width="0.5" stroke-linecap="round" stroke-linejoin="round"/>
<path d="M290.086 124.925L289.306 113.006L281.771 114.34L280.211 119.941L278.651 124.792L277.91 124.87L279.962 136.009L290.835 125.089L290.086 124.925Z" stroke="#263238" stroke-linecap="round" stroke-linejoin="round"/>
<path d="M276.584 98.5295C276.584 98.5295 273.02 95.8151 274.767 93.6779C275.679 92.5703 276.865 94.0289 276.865 94.0289C276.865 94.0289 276.233 90.6281 278.768 90.1289C281.108 89.6921 281.015 92.3753 281.015 92.3753C281.015 92.3753 282.224 90.0743 284.337 90.5891C286.022 90.9947 285.375 93.3815 285.375 93.3815C285.375 93.3815 287.621 90.5891 289.946 91.8215C291.95 92.8745 290.297 95.4017 290.297 95.4017C290.297 95.4017 292.683 94.5593 294.017 95.9009C295.351 97.2425 294.017 99.0209 294.017 99.0209C294.017 99.0209 296.646 99.0209 296.763 100.986C296.88 102.952 294.727 103.326 294.727 103.326C294.727 103.326 297.769 104.309 297.792 106.696C297.816 109.083 295.78 108.318 295.78 108.318C295.78 108.318 297.044 110.565 295.991 111.758C295.872 111.918 295.718 112.048 295.541 112.137C295.363 112.227 295.167 112.273 294.969 112.273C294.77 112.273 294.574 112.227 294.397 112.137C294.219 112.048 294.065 111.918 293.947 111.758C293.947 111.758 295.265 114.59 293.596 115.416C292.403 116.001 291.701 114.566 291.701 114.566C291.701 114.566 290.694 117.015 289.478 115.518C288.261 114.02 282.224 102.484 282.224 102.484L276.584 98.5295Z" fill="#263238" stroke="#263238" stroke-width="0.75" stroke-linecap="round" stroke-linejoin="round"/>
<path d="M275.554 98.6386L273.308 103.319C273.078 103.806 272.958 104.339 272.957 104.879V106.345L271.717 109.465C271.653 109.628 271.601 109.794 271.561 109.964C271.163 111.626 269.268 120.549 273.901 122.366C277.988 123.973 283.744 120.096 285.858 118.505C286.385 118.108 286.83 117.613 287.169 117.047L288.573 114.769C289.169 114.947 289.806 114.932 290.393 114.726C290.98 114.52 291.487 114.134 291.841 113.622C293.097 111.821 294.547 110.846 292.824 109.223C291.1 107.601 289.509 110.198 289.509 110.198L289.743 105.62L287.746 102.11L287.644 99.9022C287.644 99.9022 281.108 99.1768 276.724 96.7822L275.554 98.6386Z" fill="white" stroke="#263238" stroke-width="0.75" stroke-linecap="round" stroke-linejoin="round"/>
<path d="M275.554 98.6386L273.308 103.319C273.078 103.806 272.958 104.339 272.957 104.879V106.345L271.717 109.465C271.653 109.628 271.601 109.794 271.561 109.964C271.163 111.626 269.268 120.549 273.901 122.366C277.988 123.973 283.744 120.096 285.858 118.505C286.385 118.108 286.83 117.613 287.169 117.047L288.573 114.769C289.169 114.947 289.806 114.932 290.393 114.726C290.98 114.52 291.487 114.134 291.841 113.622C293.097 111.821 294.547 110.846 292.824 109.223C291.1 107.601 289.509 110.198 289.509 110.198L289.743 105.62L287.746 102.11L287.644 99.9022C287.644 99.9022 281.108 99.1768 276.724 96.7822L275.554 98.6386Z" fill="#858585" stroke="#263238" stroke-linecap="round" stroke-linejoin="round"/>
<path d="M279.532 114.621C278.269 117.062 276.553 116.657 275.476 116.048" stroke="#263238" stroke-width="0.75" stroke-linecap="round" stroke-linejoin="round"/>
<path d="M279.556 109.075C279.384 109.629 279.033 110.011 278.776 109.933C278.518 109.855 278.432 109.332 278.604 108.779C278.776 108.225 279.127 107.835 279.384 107.921C279.641 108.006 279.727 108.521 279.556 109.075Z" fill="#263238"/>
<path d="M274.345 107.46C274.174 108.022 273.823 108.404 273.565 108.318C273.308 108.233 273.222 107.718 273.394 107.164C273.565 106.61 273.924 106.228 274.174 106.314C274.423 106.4 274.517 106.907 274.345 107.46Z" fill="#263238"/>
<path d="M273.971 103.857C274.177 103.799 274.394 103.784 274.606 103.814C274.819 103.843 275.023 103.916 275.206 104.028C275.389 104.14 275.547 104.289 275.67 104.465C275.793 104.641 275.878 104.84 275.921 105.05" stroke="#263238" stroke-width="0.75" stroke-linecap="round" stroke-linejoin="round"/>
<path d="M278.456 105.986C278.456 105.986 280.274 104.075 281.498 106.103" stroke="#263238" stroke-width="0.75" stroke-linecap="round" stroke-linejoin="round"/>
<path d="M275.96 107.952C275.797 108.697 275.446 109.388 274.941 109.96C274.436 110.532 273.793 110.966 273.074 111.22L274.493 113.474" stroke="#263238" stroke-width="0.75" stroke-linecap="round" stroke-linejoin="round"/>
<path d="M285.016 197.379L284.618 199.789C284.561 200.187 284.66 200.592 284.894 200.919C285.127 201.246 285.479 201.47 285.874 201.544L310.888 205.647C311.286 205.704 311.691 205.605 312.018 205.371C312.345 205.137 312.569 204.786 312.643 204.391L313.033 201.981L285.016 197.379Z" fill="white" stroke="#263238" stroke-width="0.75" stroke-linecap="round" stroke-linejoin="round"/>
<path d="M314.154 186.793L288.854 182.641C288.101 182.518 287.391 183.028 287.268 183.78L284.76 199.059C284.637 199.811 285.147 200.521 285.899 200.645L311.199 204.797C311.952 204.92 312.662 204.41 312.785 203.658L315.293 188.379C315.416 187.627 314.906 186.917 314.154 186.793Z" fill="white"/>
<path opacity="0.5" d="M314.154 186.793L288.854 182.641C288.101 182.518 287.391 183.028 287.268 183.78L284.76 199.059C284.637 199.811 285.147 200.521 285.899 200.645L311.199 204.797C311.952 204.92 312.662 204.41 312.785 203.658L315.293 188.379C315.416 187.627 314.906 186.917 314.154 186.793Z" fill="white"/>
<path d="M314.154 186.793L288.854 182.641C288.101 182.518 287.391 183.028 287.268 183.78L284.76 199.059C284.637 199.811 285.147 200.521 285.899 200.645L311.199 204.797C311.952 204.92 312.662 204.41 312.785 203.658L315.293 188.379C315.416 187.627 314.906 186.917 314.154 186.793Z" stroke="#263238" stroke-linecap="round" stroke-linejoin="round"/>
<path d="M304.391 189.641L303.01 194.321L298.33 197.668C297.668 199.716 296.887 201.724 295.99 203.681C295.931 203.79 295.9 203.913 295.901 204.037C295.901 204.161 295.933 204.284 295.994 204.392C296.055 204.5 296.143 204.592 296.248 204.657C296.354 204.722 296.475 204.76 296.599 204.766C297.246 204.766 298.003 204.461 298.416 203.206C298.416 203.206 298.596 205.67 300.117 204.165C300.117 204.165 301.045 206.552 302.496 204.672C302.496 204.672 305.857 205.171 306.396 202.745C306.934 200.32 307.729 196.045 307.729 196.045L309.867 191.03L304.391 189.641Z" fill="#858585" stroke="#263238" stroke-linecap="round" stroke-linejoin="round"/>
<path d="M298.385 202.246L298.915 198.635" stroke="#263238" stroke-width="0.75" stroke-linecap="round" stroke-linejoin="round"/>
<path d="M299.22 202.48C299.22 202.48 299.586 203.673 300.413 203.478C301.24 203.283 302.418 204.204 304.992 203.12" stroke="#263238" stroke-width="0.75" stroke-linecap="round" stroke-linejoin="round"/>
<path d="M306.746 131.009C306.746 131.009 318.446 163.519 318.228 168.269C318.01 173.02 309.687 193.682 309.687 193.682L303.26 191.638L307.55 167.404L303.704 150.563C303.704 150.563 302.831 138.216 306.746 131.009Z" fill="white" stroke="#263238" stroke-linecap="round" stroke-linejoin="round"/>
<path d="M308.993 166.865C309.424 166.535 309.924 166.305 310.456 166.193C310.988 166.081 311.538 166.09 312.066 166.218" stroke="#263238" stroke-width="0.75" stroke-linecap="round" stroke-linejoin="round"/>
<path d="M301.388 192.153C301.155 191.844 300.981 191.495 300.873 191.123C300.424 191.115 299.987 191.277 299.652 191.577C299.317 191.877 299.108 192.293 299.068 192.741C299.027 193.189 299.158 193.636 299.434 193.991C299.709 194.347 300.11 194.585 300.554 194.657C301.02 194.733 301.498 194.622 301.882 194.347C302.267 194.072 302.527 193.656 302.605 193.19C302.103 192.977 301.678 192.615 301.388 192.153Z" fill="white"/>
<path d="M73.1132 123.536L74.5328 130.533L58.7612 131.196L61.499 111.805L72.1226 113.037L73.1132 123.536Z" fill="white"/>
<path d="M80.18 112.92L66.9902 116.82C67.1548 118.332 67.4684 119.824 67.9262 121.274C68.7062 123.521 73.4564 127.514 76.5062 127.467C79.556 127.421 79.8992 117.702 79.8992 117.702L81.74 116.68C81.8454 116.62 81.9369 116.538 82.0084 116.44C82.0799 116.342 82.1299 116.23 82.1549 116.112C82.18 115.993 82.1796 115.87 82.1538 115.752C82.128 115.633 82.0774 115.522 82.0052 115.424L80.18 112.92Z" fill="#263238" stroke="#263238" stroke-width="0.75" stroke-linecap="round" stroke-linejoin="round"/>
<path d="M73.1132 123.536L74.5328 130.533L58.7612 131.196L61.499 111.805L72.1226 113.037L73.1132 123.536Z" stroke="#263238" stroke-linecap="round" stroke-linejoin="round"/>
<path d="M73.8387 98.8881C73.8387 98.8881 77.6685 99.6681 77.2785 95.5107C76.8885 91.3533 69.7515 93.8961 66.0309 94.3641C62.3103 94.8321 50.2983 99.3171 54.5493 106.4C54.5493 106.4 52.0455 110.393 61.0623 117.093C61.0623 117.093 65.3445 115.081 67.6923 118.021L69.5253 114.449L74.2053 106.228L73.8387 98.8881Z" fill="#263238" stroke="#263238" stroke-linecap="round" stroke-linejoin="round"/>
<path d="M73.5576 98.2641C73.5576 98.2641 77.2236 100.308 79.3296 97.7493C79.3296 97.7493 79.5636 103.209 73.5576 98.2641Z" fill="#263238" stroke="#263238" stroke-linecap="round" stroke-linejoin="round"/>
<path d="M73.9397 97.6948C73.9397 97.6948 79.3997 103.443 79.2125 107.382V110.978L82.0985 114.223C82.1792 114.306 82.2403 114.406 82.2776 114.516C82.3148 114.625 82.3271 114.742 82.3137 114.857C82.3002 114.972 82.2613 115.083 82.1998 115.181C82.1383 115.279 82.0558 115.362 81.9581 115.424L80.2811 116.586C80.2811 116.586 80.7725 125.79 77.8865 126.118C75.0005 126.446 70.1957 122.998 69.2363 120.97C68.5137 119.109 67.9908 117.177 67.6763 115.206C66.8363 114.978 66.0836 114.505 65.5151 113.846C64.9465 113.187 64.5882 112.373 64.4861 111.509C64.1507 108.482 67.2005 108.568 67.9883 110.549L68.6279 112.164L70.6091 112.094C70.6091 112.094 69.4781 109.239 70.1489 108.396C70.8197 107.554 73.4561 105.503 72.2471 103.545C71.0381 101.587 71.4437 98.2564 73.9397 97.6948Z" fill="white" stroke="#263238" stroke-linecap="round" stroke-linejoin="round"/>
<path d="M77.0601 118.388C77.2872 118.791 77.6353 119.113 78.0553 119.308C78.4752 119.502 78.9456 119.56 79.4001 119.472" stroke="#263238" stroke-width="0.75" stroke-linecap="round" stroke-linejoin="round"/>
<path d="M75.6245 107.406C75.6245 107.406 76.8647 105.682 78.0425 107.258" stroke="#263238" stroke-linecap="round" stroke-linejoin="round"/>
<path d="M77.5826 111.001C77.5826 111.54 77.372 111.984 77.0834 111.992C76.7948 112 76.5452 111.571 76.5296 111.033C76.514 110.494 76.7402 110.05 77.0288 110.042C77.3174 110.034 77.567 110.44 77.5826 111.001Z" fill="#263238"/>
<path d="M52.5676 283.787L50.29 303.389L57.0682 304.434L60.8044 285.059L52.5676 283.787Z" fill="white" stroke="#263238" stroke-linecap="round" stroke-linejoin="round"/>
<path d="M49.3774 197.176C49.3774 197.176 49.6504 208.533 53.6596 216.52L54.5722 246.659L49.9468 295.222L60.235 296.205L69.595 245.411L72.715 199.391L49.3774 197.176Z" fill="white" stroke="#263238" stroke-linecap="round" stroke-linejoin="round"/>
<path opacity="0.2" d="M71.2643 221.52L70.4063 216.114L66.5063 199.102L65.7887 198.736L49.4087 197.176C49.4087 197.176 49.4087 199.04 49.7753 201.793L57.8639 206.38C58.0547 209.26 58.7051 212.09 59.7905 214.765C59.8877 214.998 59.9232 215.253 59.8936 215.504C59.8639 215.755 59.7702 215.995 59.6214 216.199C59.4725 216.403 59.2736 216.566 59.0436 216.672C58.8137 216.777 58.5606 216.821 58.3085 216.801C57.4739 216.738 56.7485 216.801 56.7485 217.347C56.7485 218.61 62.8481 222.69 62.8481 222.69C62.8481 222.69 69.0023 242.58 68.7839 249.927L69.6185 245.403L71.2643 221.52Z" fill="black"/>
<path d="M73.2534 285.074L73.9944 304.793H80.8506L81.5838 285.074H73.2534Z" fill="white" stroke="#263238" stroke-linecap="round" stroke-linejoin="round"/>
<path d="M91.7707 307.569C89.5074 306.88 87.3054 306.003 85.1875 304.948C84.1735 304.317 82.7539 302.25 81.7087 301.665C81.4894 301.57 81.2532 301.522 81.0145 301.522C80.7758 301.522 80.5395 301.57 80.3203 301.665C79.8211 302.07 79.7977 304.184 79.7977 304.184C79.7977 304.184 78.9163 302.031 78.2767 301.665C77.3875 301.165 74.9695 301.017 74.1817 301.665C72.8713 302.733 72.3955 306.446 72.1381 308.115C72.0757 308.482 72.1381 310.51 72.1381 310.51H93.1981V309.582C93.1997 309.139 93.0629 308.707 92.807 308.347C92.551 307.986 92.1887 307.714 91.7707 307.569Z" fill="#263238" stroke="#263238" stroke-linecap="round" stroke-linejoin="round"/>
<path d="M87.5978 198.112L85.913 243.672L83.0972 295.69H72.38C72.38 295.69 70.1336 255.762 70.6952 244.21L65.0714 217.495C65.0714 217.495 59.1668 209.617 60.5708 200.062L87.5978 198.112Z" fill="white" stroke="#263238" stroke-linecap="round" stroke-linejoin="round"/>
<path d="M71.4282 291.821L71.7792 298.077H83.5182L84.4308 291.821H71.4282Z" fill="white" stroke="#263238" stroke-linecap="round" stroke-linejoin="round"/>
<path d="M49.0891 291.283L48.8473 297.539L60.5317 298.654L62.0371 292.515L49.0891 291.283Z" fill="white" stroke="#263238" stroke-linecap="round" stroke-linejoin="round"/>
<path d="M105.366 168.121L89.1499 157.809L106.24 140.719L122.464 151.031L105.366 168.121Z" fill="white" stroke="#263238" stroke-linecap="round" stroke-linejoin="round"/>
<path d="M106.294 164.595L93.2524 156.304L106.996 142.56L120.038 150.852L106.294 164.595Z" fill="white" stroke="#263238" stroke-width="0.75" stroke-linecap="round" stroke-linejoin="round"/>
<path d="M107.246 150.36L109.523 148.083L106.598 146.226L104.321 148.496L107.246 150.36Z" stroke="#263238" stroke-width="0.75" stroke-linecap="round" stroke-linejoin="round"/>
<path d="M103.713 153.902L105.99 151.624L103.057 149.76L100.788 152.037L103.713 153.902Z" stroke="#263238" stroke-width="0.75" stroke-linecap="round" stroke-linejoin="round"/>
<path d="M100.054 157.56L102.324 155.282L99.3992 153.418L97.1216 155.696L100.054 157.56Z" stroke="#263238" stroke-width="0.75" stroke-linecap="round" stroke-linejoin="round"/>
<path d="M112.823 143.379L110.67 145.54C110.568 145.642 110.491 145.765 110.443 145.901C110.395 146.036 110.378 146.181 110.394 146.324C110.41 146.467 110.457 146.605 110.534 146.727C110.61 146.849 110.712 146.953 110.834 147.03L113.954 149.034C114.298 149.254 114.706 149.349 115.112 149.305C115.517 149.261 115.896 149.081 116.185 148.793L118.174 146.796L112.823 143.379Z" fill="#858585" stroke="#263238" stroke-linecap="round" stroke-linejoin="round"/>
<path d="M55.1187 130.065L57.9345 123.879C57.9345 123.879 74.2442 122.054 78.5966 135.688L55.1187 130.065Z" fill="#858585" stroke="#263238" stroke-linecap="round" stroke-linejoin="round"/>
<path d="M45.8599 135.337C45.8599 135.337 41.8351 166.171 42.9037 177.099C43.7461 185.741 49.4401 193.057 49.4401 193.057L57.8797 189.75L53.5897 177.099C53.5897 177.099 54.9235 154.323 56.1871 149.019L45.8599 135.337Z" fill="#858585" stroke="#263238" stroke-linecap="round" stroke-linejoin="round"/>
<path d="M46.9985 191.544L49.3775 194.391L59.1275 190.593L57.8639 186.794L46.9985 191.544Z" fill="#858585" stroke="#263238" stroke-linecap="round" stroke-linejoin="round"/>
<path d="M45.8596 135.338C45.8596 135.338 44.5882 153.051 48.1996 165.5C51.811 177.949 48.1996 198.393 48.1996 198.393C48.1996 198.393 64.8214 209.149 90.3196 200.92C90.3196 200.92 87.1606 140.392 82.9408 137.022C78.721 133.653 54.9076 120.791 45.8596 135.338Z" fill="#858585" stroke="#263238" stroke-linecap="round" stroke-linejoin="round"/>
<path opacity="0.2" d="M90.3201 200.92C90.3201 200.92 89.2359 180.172 87.4965 162.294C83.8071 153.34 77.7777 141.414 77.4579 158.16C76.9899 182.379 91.8957 180.952 80.0865 185.172C77.4459 186.172 74.6173 186.577 71.8021 186.359C68.987 186.14 66.2547 185.303 63.8001 183.908C63.6038 183.808 63.379 183.777 63.163 183.822C62.9471 183.867 62.7529 183.984 62.6127 184.154C62.4725 184.324 62.3947 184.537 62.3922 184.758C62.3897 184.978 62.4626 185.193 62.5989 185.367C65.5629 189.134 70.0635 191.482 73.5189 192.831C73.8309 192.95 74.0947 193.17 74.2691 193.454C74.4436 193.739 74.5189 194.074 74.4833 194.406C74.4476 194.738 74.3031 195.049 74.0722 195.291C73.8414 195.532 73.5371 195.69 73.2069 195.741C62.0841 197.386 53.3637 191.474 49.3623 188.034C48.8943 193.993 48.1221 198.393 48.1221 198.393C48.1221 198.393 64.8219 209.149 90.3201 200.92Z" fill="black"/>
<path d="M82.9566 137.03C84.4772 137.728 85.7966 138.799 86.7921 140.144C87.7876 141.488 88.427 143.063 88.6506 144.721C89.493 150.524 94.8906 168.347 94.8906 168.347L96.6846 167.185C98.1824 167.858 99.4162 169.006 100.195 170.451C100.973 171.897 101.253 173.559 100.99 175.18C100.99 175.18 96.6066 183.76 91.8174 182.145C86.8956 180.476 84.1422 176.451 81.6774 169.868C80.3748 166.358 76.6152 155.781 76.6152 155.781" fill="#858585"/>
<path d="M82.9566 137.03C84.4772 137.728 85.7966 138.799 86.7921 140.144C87.7876 141.488 88.427 143.063 88.6506 144.721C89.493 150.524 94.8906 168.347 94.8906 168.347L96.6846 167.185C98.1824 167.858 99.4162 169.006 100.195 170.451C100.973 171.897 101.253 173.559 100.99 175.18C100.99 175.18 96.6066 183.76 91.8174 182.145C86.8956 180.476 84.1422 176.451 81.6774 169.868C80.3748 166.358 76.6152 155.781 76.6152 155.781" stroke="#263238" stroke-linecap="round" stroke-linejoin="round"/>
<path d="M97.0435 173.511C97.0717 173.969 97.0508 174.43 96.9811 174.884" stroke="#263238" stroke-width="0.75" stroke-linecap="round" stroke-linejoin="round"/>
<path d="M93.8223 177.099C93.8223 177.099 95.2965 174.759 95.0859 169.712C95.7946 170.249 96.3357 170.977 96.6459 171.81" stroke="#263238" stroke-width="0.75" stroke-linecap="round" stroke-linejoin="round"/>
<path d="M97.8623 166.694L103.486 162.684C103.767 161.438 104.379 160.29 105.258 159.362C106.136 158.434 107.249 157.76 108.478 157.412C108.478 157.412 111.076 153.122 112.55 153.621C114.024 154.12 110.795 155.867 110.514 158.114L111.707 159.713C111.707 159.713 115.607 159.026 116.559 157.763C116.559 157.763 116.348 160.438 114.804 160.883C114.804 160.883 114.804 162.918 113.751 162.848L106.013 165.032L101.513 173.433L97.8623 166.694Z" fill="white" stroke="#263238" stroke-linecap="round" stroke-linejoin="round"/>
<path d="M74.8369 186.194C75.7261 186.112 76.6076 185.96 77.4733 185.741" stroke="#263238" stroke-width="0.75" stroke-linecap="round" stroke-linejoin="round"/>
<path d="M52.7314 173.409C52.7314 173.409 61.0228 186.092 73.0114 186.264" stroke="#263238" stroke-width="0.75" stroke-linecap="round" stroke-linejoin="round"/>
<path d="M95.4365 166.834C95.4365 166.834 101.302 171.264 100.741 176.607L102.854 172.559C102.854 172.559 102.784 169.15 97.9325 165.539L95.4365 166.834Z" fill="#858585" stroke="#263238" stroke-linecap="round" stroke-linejoin="round"/>
<path d="M72.138 310.51H93.198V309.582C93.1979 309.354 93.161 309.127 93.0888 308.911H72.1068C72.1068 309.621 72.138 310.51 72.138 310.51Z" fill="white" stroke="#263238" stroke-width="0.75" stroke-linecap="round" stroke-linejoin="round"/>
<path d="M67.6999 307.569C65.4366 306.88 63.2346 306.003 61.1167 304.948C60.1027 304.317 58.6831 302.25 57.6457 301.665C57.4251 301.57 57.1876 301.521 56.9476 301.521C56.7076 301.521 56.4701 301.57 56.2495 301.665C55.7503 302.07 55.7269 304.184 55.7269 304.184C55.7269 304.184 54.8533 302.031 54.2059 301.665C53.3167 301.165 50.8987 301.017 50.1109 301.665C48.8005 302.733 48.3247 306.446 48.0673 308.115C48.0049 308.482 48.0673 310.51 48.0673 310.51H69.1273V309.582C69.1289 309.139 68.9921 308.707 68.7362 308.347C68.4802 307.986 68.1179 307.714 67.6999 307.569Z" fill="#263238" stroke="#263238" stroke-linecap="round" stroke-linejoin="round"/>
<path d="M48.0517 310.51H69.1117V309.582C69.1116 309.354 69.0747 309.127 69.0025 308.911H48.0205C48.0205 309.621 48.0517 310.51 48.0517 310.51Z" fill="white" stroke="#263238" stroke-width="0.75" stroke-linecap="round" stroke-linejoin="round"/>
<path d="M79.119 244.514C79.119 244.514 76.8804 248.375 73.2534 246.901" stroke="#263238" stroke-width="0.75" stroke-linecap="round" stroke-linejoin="round"/>
<path d="M63.5113 245.871C63.5113 245.871 59.4943 249.303 56.1715 246.901" stroke="#263238" stroke-width="0.75" stroke-linecap="round" stroke-linejoin="round"/>
<path d="M105.428 145.953L105.99 148.746H110.966L106.918 147.802L107.113 145.899L105.428 145.953Z" fill="white"/>
</svg>
